/* XPM */
static char * ft_folder_xpm[] = {
"32 32 290 2",
"  	c None",
". 	c #B1C4B1",
"+ 	c #97BE97",
"@ 	c #C3CEC3",
"# 	c #D8D9D8",
"$ 	c #E1E6E1",
"% 	c #F8F8F8",
"& 	c #FEFEFE",
"* 	c #E0E0E0",
"= 	c #ABC6AB",
"- 	c #CDD6CD",
"; 	c #CFDDCF",
"> 	c #F0F0F0",
", 	c #F9F9F9",
"' 	c #F2F2F2",
") 	c #EAEAEA",
"! 	c #E3E3E3",
"~ 	c #E4E4E4",
"{ 	c #FBFBFB",
"] 	c #BCCDBC",
"^ 	c #D6DBD6",
"/ 	c #E0E7E0",
"( 	c #FCFCFC",
"_ 	c #E2E7EB",
": 	c #C2CDD9",
"< 	c #BCC8D3",
"[ 	c #DFDFE0",
"} 	c #D2D1D2",
"| 	c #94C094",
"1 	c #F1F1F1",
"2 	c #F3F3F3",
"3 	c #EDEDED",
"4 	c #E1E2E3",
"5 	c #ABBAC7",
"6 	c #CEDAE2",
"7 	c #FCFFFF",
"8 	c #F9FDFD",
"9 	c #A6B7C6",
"0 	c #E2E2E2",
"a 	c #E1E1E1",
"b 	c #FFFFFF",
"c 	c #E9E9E9",
"d 	c #B6C2CC",
"e 	c #B6C8D5",
"f 	c #F5FDFE",
"g 	c #F7FFFF",
"h 	c #E6F1F4",
"i 	c #AEBCC9",
"j 	c #F6F6F6",
"k 	c #C8CFD6",
"l 	c #A8BDCC",
"m 	c #E2F1F5",
"n 	c #F2FFFF",
"o 	c #BFE0E7",
"p 	c #BFCAD2",
"q 	c #E6E6E6",
"r 	c #B9C1B9",
"s 	c #DAD4DF",
"t 	c #ADC1D0",
"u 	c #C9DFE7",
"v 	c #EEFFFF",
"w 	c #EDFFFF",
"x 	c #CDFBFF",
"y 	c #9FCCDA",
"z 	c #DFE1E3",
"A 	c #F5F5F5",
"B 	c #DFE2DF",
"C 	c #ABC5D4",
"D 	c #E9FFFF",
"E 	c #D9FBFF",
"F 	c #C4F6FF",
"G 	c #BAEDF8",
"H 	c #C4CDD5",
"I 	c #EBEBEB",
"J 	c #EFEFEF",
"K 	c #FDFDFD",
"L 	c #A8A8C4",
"M 	c #E9F4F9",
"N 	c #DBF5FF",
"O 	c #E4FEFF",
"P 	c #DBFBFF",
"Q 	c #C0F2FF",
"R 	c #BFF2FF",
"S 	c #96C6DB",
"T 	c #EBEBEC",
"U 	c #EEEEEE",
"V 	c #BBC3BB",
"W 	c #9E97AE",
"X 	c #D7E7EF",
"Y 	c #D7F0FF",
"Z 	c #C3E8FF",
"` 	c #DAF7FF",
" .	c #DAF8FF",
"..	c #D5F6FF",
"+.	c #BDEEFF",
"@.	c #BAEEFF",
"#.	c #B5E8FA",
"$.	c #A8BFD0",
"%.	c #E1E4E1",
"&.	c #9880AC",
"*.	c #C7D4DC",
"=.	c #D6F1FF",
"-.	c #BAE2FF",
";.	c #B6E0FF",
">.	c #CAEDFF",
",.	c #D1F2FF",
"'.	c #CCF0FF",
").	c #B8E9FF",
"!.	c #B6E9FF",
"~.	c #A4D6EF",
"{.	c #C0CEDA",
"].	c #A5B2C9",
"^.	c #D8F4FE",
"/.	c #B6DFFF",
"(.	c #ABD8FF",
"_.	c #B9E2FF",
":.	c #C8EBFF",
"<.	c #C4EAFF",
"[.	c #B3E5FF",
"}.	c #B2E4FF",
"|.	c #97C6E3",
"1.	c #D7DEE5",
"2.	c #F4F4F4",
"3.	c #B9C7B9",
"4.	c #5A7FB5",
"5.	c #9DCFFF",
"6.	c #A0D0FF",
"7.	c #A7D5FF",
"8.	c #BEE4FF",
"9.	c #BAE4FF",
"0.	c #AEE0FF",
"a.	c #ADE0FF",
"b.	c #8EB8D7",
"c.	c #ECEFF1",
"d.	c #F7F7F7",
"e.	c #E0E5E0",
"f.	c #74A6DA",
"g.	c #93C9FF",
"h.	c #91C8FF",
"i.	c #B3DDFF",
"j.	c #B4DEFF",
"k.	c #B2DDFF",
"l.	c #A9DBFF",
"m.	c #A8DBFF",
"n.	c #91B3CF",
"o.	c #FAFAFA",
"p.	c #38458E",
"q.	c #8CC1F7",
"r.	c #7FBFFF",
"s.	c #7EBFFF",
"t.	c #A0D2FF",
"u.	c #AAD8FF",
"v.	c #A4D7FF",
"w.	c #A4D6FF",
"x.	c #9ED1FA",
"y.	c #A6BED4",
"z.	c #BACABA",
"A.	c #4A6BA9",
"B.	c #84C1FF",
"C.	c #6CB6FF",
"D.	c #88C5FF",
"E.	c #9FD2FF",
"F.	c #8FC1EE",
"G.	c #C2D0DE",
"H.	c #EEE6EE",
"I.	c #699ACF",
"J.	c #68B4FF",
"K.	c #59ACFF",
"L.	c #61AAF2",
"M.	c #9ACEFF",
"N.	c #84B3E2",
"O.	c #DEE5EC",
"P.	c #333C86",
"Q.	c #7FB8F0",
"R.	c #4BA5FF",
"S.	c #47A3FF",
"T.	c #429DF8",
"U.	c #2C81D6",
"V.	c #98CBFF",
"W.	c #99CCFF",
"X.	c #81ABD6",
"Y.	c #F3F5F8",
"Z.	c #CCCCCC",
"`.	c #435E9F",
" +	c #71B8FE",
".+	c #369AFF",
"++	c #2D8BE8",
"@+	c #2883DE",
"#+	c #84BFFA",
"$+	c #9ACDFF",
"%+	c #9CB9D0",
"&+	c #EFE8EF",
"*+	c #5F8CC3",
"=+	c #50A8FF",
"-+	c #3398FE",
";+	c #2B8AE8",
">+	c #2C8CEB",
",+	c #6AB1F8",
"'+	c #A6D5FF",
")+	c #B9DAEA",
"!+	c #C1D1DC",
"~+	c #DBCEDB",
"{+	c #2C3580",
"]+	c #78B0E8",
"^+	c #3A9BFC",
"/+	c #2F91F4",
"(+	c #3194F8",
"_+	c #52A7FD",
":+	c #ACD9FB",
"<+	c #80A6C6",
"[+	c #68799A",
"}+	c #936AA2",
"|+	c #3B5496",
"1+	c #75B8FC",
"2+	c #3499FE",
"3+	c #379BFF",
"4+	c #41A0FF",
"5+	c #98CCFF",
"6+	c #94CAFF",
"7+	c #88C4FF",
"8+	c #7DBEFF",
"9+	c #7DBFFF",
"0+	c #87BDE9",
"a+	c #2C69AF",
"b+	c #1E3484",
"c+	c #567DB7",
"d+	c #5FAFFF",
"e+	c #45A2FF",
"f+	c #8BC5FF",
"g+	c #83C1FF",
"h+	c #77BBFF",
"i+	c #6BB5FF",
"j+	c #66B2FF",
"k+	c #6AB4FF",
"l+	c #8AC8FD",
"m+	c #669FD2",
"n+	c #164D98",
"o+	c #33247A",
"p+	c #74A9DE",
"q+	c #55AAFF",
"r+	c #4FA7FF",
"s+	c #74B9FF",
"t+	c #7EBEFF",
"u+	c #71B8FF",
"v+	c #65B2FF",
"w+	c #62B0FF",
"x+	c #6DB6FF",
"y+	c #7ABEFF",
"z+	c #8DC3EC",
"A+	c #387CBC",
"B+	c #1E3B86",
"C+	c #354A8E",
"D+	c #82BDF8",
"E+	c #5BADFF",
"F+	c #5EAEFF",
"G+	c #61B0FF",
"H+	c #69B4FF",
"I+	c #70B8FF",
"J+	c #74BAFF",
"K+	c #92CCFE",
"L+	c #71A9D8",
"M+	c #1E5A9E",
"N+	c #31267A",
"O+	c #4A73AC",
"P+	c #7CBEFF",
"Q+	c #82C2FF",
"R+	c #94C6EE",
"S+	c #4A88C1",
"T+	c #24428B",
"U+	c #6C9FD3",
"V+	c #7ABDFF",
"W+	c #7BBDFF",
"X+	c #98CFFE",
"Y+	c #7EB2DC",
"Z+	c #2D66A4",
"`+	c #31287C",
" @	c #323F87",
".@	c #88BDF3",
"+@	c #82C1FF",
"@@	c #89C5FF",
"#@	c #98CAF1",
"$@	c #5D94C6",
"%@	c #2A478C",
"&@	c #4264A1",
"*@	c #95CAFF",
"=@	c #7BAFE0",
"-@	c #3A6EA6",
";@	c #312A7C",
">@	c #35669B",
",@	c #334F90",
"                                              . +               ",
"                                      @ # $ % & *               ",
"                            = - ; > & , ' ) ! ~ {               ",
"                    ] ^ / , ( _ : < [ * * * * * { }             ",
"              | 1 & , 2 3 4 5 6 7 8 9 0 0 0 0 0 ' a             ",
"                b c ~ ~ d e f g g g h i ~ ~ ~ ~ ) (             ",
"                j > k l m n n n n n n o p q q q q ( r           ",
"                s t u v v v v v v v w x y z c c c A B           ",
"                C D D D D D D D D D E F G H I I I J K           ",
"            L M N O O O O O O O O P Q R S T U U U U K V         ",
"        W X Y Z Z `  . . . . . ...+.@.@.#.$.> > > > % %.        ",
"    &.*.=.-.;.;.;.>.,.,.,.,.,.'.).!.!.!.!.~.{.' ' ' A K         ",
"  ].^./.(.(.(.(.(._.:.:.:.:.<.[.}.}.}.}.}.}.|.1.2.2.A & 3.      ",
"  4.5.6.6.6.6.6.6.7.8.8.8.9.0.a.a.a.a.a.a.a.a.b.c.d.d.( e.      ",
"    f.g.h.h.h.h.h.g.i.j.k.l.m.m.m.m.m.m.m.m.m.m.n.% , o.K       ",
"    p.q.r.s.s.s.s.s.t.u.v.w.w.w.w.w.w.w.w.w.w.w.x.y.{ { b z.    ",
"      A.B.C.C.C.C.C.D.t.E.E.E.E.E.E.E.E.E.E.E.E.E.F.G.K & H.    ",
"        I.J.K.K.K.K.L.M.M.M.M.M.M.M.M.M.M.M.M.M.M.M.N.O.b K     ",
"        P.Q.R.S.S.T.U.V.W.W.W.W.W.W.W.W.W.W.W.W.W.W.W.X.Y.b Z.  ",
"          `. +.+.+++@+#+W.W.W.W.W.W.W.W.W.W.W.W.W.W.W.$+%+& &+  ",
"            *+=+-+;+>+,+W.W.W.W.W.W.W.W.W.W.W.W.W.W.'+)+!+3 ~+  ",
"            {+]+^+/+(+_+W.W.W.W.W.W.W.W.W.W.W.W.V.:+<+[+}+      ",
"              |+1+2+3+4+5+W.W.W.W.W.W.W.6+7+8+9+0+a+b+          ",
"                c+d+4+e+f+W.W.W.h.g+h+i+j+k+l+m+n+o+            ",
"                  p+q+r+s+t+u+v+w+j+k+x+y+z+A+B+                ",
"                  C+D+E+F+G+v+H+x+I+J+K+L+M+N+                  ",
"                    O+P+H+C.I+s+h+Q+R+S+T+                      ",
"                      U+V+h+W+r.X+Y+Z+`+                        ",
"                       @.@+@@@#@$@%@                            ",
"                        &@*@=@-@;@                              ",
"                          >@,@                                  ",
"                                                                "};
