/* XPM */
static char * ft_folder_big_xpm[] = {
"60 60 737 2",
"  	c None",
". 	c #65AC65",
"+ 	c #8CB18C",
"@ 	c #C3B6C3",
"# 	c #9BC29B",
"$ 	c #DDD4DD",
"% 	c #D6DAD6",
"& 	c #AAB6AA",
"* 	c #BBBDBB",
"= 	c #ADCCAD",
"- 	c #E4DEE4",
"; 	c #EDEDED",
"> 	c #FAFAFA",
", 	c #FFFFFF",
"' 	c #FCFCFC",
") 	c #B7B2B7",
"! 	c #82B182",
"~ 	c #BFBCBF",
"{ 	c #B8C4B8",
"] 	c #C5D6C5",
"^ 	c #E9E7E9",
"/ 	c #F3F3F3",
"( 	c #FDFDFD",
"_ 	c #FEFEFE",
": 	c #F6F6F6",
"< 	c #CFD1CF",
"[ 	c #7EB47E",
"} 	c #D9C3D9",
"| 	c #BCCCBC",
"1 	c #D8E0D8",
"2 	c #EFEFEF",
"3 	c #F8F8F8",
"4 	c #F2F2F2",
"5 	c #EBEBEB",
"6 	c #E5E5E5",
"7 	c #E1E1E1",
"8 	c #DEDEDE",
"9 	c #EFECEF",
"0 	c #ADABAD",
"a 	c #8EB98E",
"b 	c #D5C8D5",
"c 	c #C6D6C6",
"d 	c #E8E9E8",
"e 	c #F5F5F5",
"f 	c #FBFBFB",
"g 	c #E8E8E8",
"h 	c #E3E3E3",
"i 	c #DFDFDF",
"j 	c #E2E2E2",
"k 	c #C9B8C9",
"l 	c #A1AEA1",
"m 	c #A6BFA6",
"n 	c #D5D0D5",
"o 	c #D4E0D4",
"p 	c #F5F3F5",
"q 	c #F6F7F8",
"r 	c #AEBECD",
"s 	c #95A9BE",
"t 	c #9AABBD",
"u 	c #D1D5D9",
"v 	c #E0E0E0",
"w 	c #D1D2D1",
"x 	c #6EAD6E",
"y 	c #98B398",
"z 	c #BBC6BB",
"A 	c #D7D8D7",
"B 	c #E7EAE7",
"C 	c #FBFAFB",
"D 	c #F0F0F0",
"E 	c #E7E8E8",
"F 	c #AEBAC6",
"G 	c #829BB2",
"H 	c #D9E1E9",
"I 	c #F8FAFB",
"J 	c #F0F4F6",
"K 	c #90A6BB",
"L 	c #BCC5CD",
"M 	c #EEEEEE",
"N 	c #EFEEEF",
"O 	c #82A482",
"P 	c #CFD7CF",
"Q 	c #F9F9F9",
"R 	c #E7E7E7",
"S 	c #E1E1E2",
"T 	c #C2CAD1",
"U 	c #8199B0",
"V 	c #BACAD7",
"W 	c #FAFEFE",
"X 	c #FBFFFF",
"Y 	c #F4F9FB",
"Z 	c #859DB5",
"` 	c #CDD2D7",
" .	c #E6E6E6",
"..	c #D5BED5",
"+.	c #D3CBD3",
"@.	c #E4E4E4",
"#.	c #E3E3E4",
"$.	c #D0D5D9",
"%.	c #93A6B9",
"&.	c #9CB3C5",
"*.	c #ECF5F7",
"=.	c #F9FFFF",
"-.	c #E3EDF1",
";.	c #7D97AE",
">.	c #DADCDE",
",.	c #D2D1D2",
"'.	c #CBAECB",
").	c #DDDFE1",
"!.	c #A2B2C1",
"~.	c #8DA6BB",
"{.	c #D6E4EB",
"].	c #F7FFFF",
"^.	c #C6D7E1",
"/.	c #8EA3B6",
"(.	c #E3E4E4",
"_.	c #EDECED",
":.	c #8AA88A",
"<.	c #E4E5E5",
"[.	c #B6C1CB",
"}.	c #829CB3",
"|.	c #BBD0DB",
"1.	c #F1FDFD",
"2.	c #F4FFFF",
"3.	c #A0C0D0",
"4.	c #A4B4C2",
"5.	c #E9E9E9",
"6.	c #A9AFA9",
"7.	c #CBD1D7",
"8.	c #839CB2",
"9.	c #A3BCCC",
"0.	c #E7F6F8",
"a.	c #F2FFFF",
"b.	c #D9FEFE",
"c.	c #7BA9BE",
"d.	c #BFC8D1",
"e.	c #D5D2D5",
"f.	c #D6D3D6",
"g.	c #F2F4F6",
"h.	c #92A6B9",
"i.	c #8BA8BD",
"j.	c #D8ECF0",
"k.	c #EEFFFF",
"l.	c #EFFFFF",
"m.	c #CFFDFF",
"n.	c #C3F6FA",
"o.	c #739BB3",
"p.	c #D9DCDF",
"q.	c #ECECEC",
"r.	c #8BA08B",
"s.	c #D0B4D0",
"t.	c #BECBD8",
"u.	c #7A99B2",
"v.	c #C4DCE5",
"w.	c #EBFDFE",
"x.	c #EDFFFF",
"y.	c #E0FDFF",
"z.	c #C7FAFF",
"A.	c #B5E8F1",
"B.	c #90AABE",
"C.	c #92AA92",
"D.	c #46698F",
"E.	c #A4C2D1",
"F.	c #EAFFFF",
"G.	c #E8FEFF",
"H.	c #CBF9FF",
"I.	c #C4F7FF",
"J.	c #89AEC3",
"K.	c #E2D6E2",
"L.	c #734A82",
"M.	c #8A98B9",
"N.	c #E8F3F8",
"O.	c #E5FDFF",
"P.	c #E7FFFF",
"Q.	c #D3F9FF",
"R.	c #C2F5FF",
"S.	c #BAEDF9",
"T.	c #84A3BA",
"U.	c #F4F4F4",
"V.	c #94A194",
"W.	c #6C4760",
"X.	c #7F86BD",
"Y.	c #D7E0E9",
"Z.	c #F9FEFF",
"`.	c #E8F8FF",
" +	c #DDF9FF",
".+	c #E5FFFF",
"++	c #D7FAFF",
"@+	c #C1F3FF",
"#+	c #C0F3FF",
"$+	c #A5D7E8",
"%+	c #A3B3C3",
"&+	c #97AD97",
"*+	c #963A65",
"=+	c #7F70A5",
"-+	c #BDCBDC",
";+	c #F5FCFD",
">+	c #EBF9FF",
",+	c #D5F1FF",
"'+	c #CAEDFF",
")+	c #D3F3FF",
"!+	c #E0FCFF",
"~+	c #D6F8FF",
"{+	c #C0F1FF",
"]+	c #BDF0FF",
"^+	c #A4D6EA",
"/+	c #9EB1C2",
"(+	c #DED6DE",
"_+	c #786182",
":+	c #ADB7C3",
"<+	c #EAF6F8",
"[+	c #EDFBFF",
"}+	c #D5EFFF",
"|+	c #C5E9FF",
"1+	c #C4E8FF",
"2+	c #C7EBFF",
"3+	c #DBF8FF",
"4+	c #D4F6FF",
"5+	c #BFEFFF",
"6+	c #BBEEFF",
"7+	c #B9ECFD",
"8+	c #82AFCA",
"9+	c #C4CED7",
"0+	c #F7F7F7",
"a+	c #989D98",
"b+	c #894993",
"c+	c #9A9FBF",
"d+	c #DFF0F4",
"e+	c #EFFDFF",
"f+	c #D8F1FF",
"g+	c #C2E7FF",
"h+	c #BDE4FF",
"i+	c #BFE6FF",
"j+	c #D7F5FF",
"k+	c #D0F3FF",
"l+	c #BCEDFF",
"m+	c #B9ECFF",
"n+	c #B2E5F9",
"o+	c #78A0BD",
"p+	c #D9DEE3",
"q+	c #F1F1F1",
"r+	c #9CB49C",
"s+	c #903F86",
"t+	c #8788AD",
"u+	c #D1E4EC",
"v+	c #EDFEFE",
"w+	c #DBF4FF",
"x+	c #BFE5FF",
"y+	c #B7E1FF",
"z+	c #B7E0FF",
"A+	c #C8ECFF",
"B+	c #D1F2FF",
"C+	c #CCF0FF",
"D+	c #B8EAFF",
"E+	c #B6E9FF",
"F+	c #A7DAF2",
"G+	c #80A1BB",
"H+	c #EAECED",
"I+	c #D6D6D6",
"J+	c #7A7EC0",
"K+	c #BED5E3",
"L+	c #E9FDFE",
"M+	c #E1F9FF",
"N+	c #C1E5FF",
"O+	c #B1DCFF",
"P+	c #B0DCFF",
"Q+	c #BCE4FF",
"R+	c #CCEEFF",
"S+	c #C7EDFF",
"T+	c #B6E7FF",
"U+	c #B3E6FF",
"V+	c #97CAE6",
"W+	c #91AAC0",
"X+	c #F1F1F2",
"Y+	c #F4F3F4",
"Z+	c #909890",
"`+	c #6C3A77",
" @	c #8CA4C7",
".@	c #E4FCFD",
"+@	c #E2FBFF",
"@@	c #C7E9FF",
"#@	c #ADD9FF",
"$@	c #ABD8FF",
"%@	c #B0DBFF",
"&@	c #C7EAFF",
"*@	c #C2E9FF",
"=@	c #B4E5FF",
"-@	c #B1E4FF",
";@	c #84B5D6",
">@	c #AFBFCF",
",@	c #A5B9A5",
"'@	c #24347F",
")@	c #81A9C3",
"!@	c #BEE4FF",
"~@	c #ACD8FF",
"{@	c #A5D3FF",
"]@	c #A7D5FF",
"^@	c #BDE5FF",
"/@	c #BCE6FF",
"(@	c #B1E3FF",
"_@	c #AFE2FF",
":@	c #74A3C6",
"<@	c #CCD5DE",
"[@	c #CFD6CF",
"}@	c #274485",
"|@	c #83B6E9",
"1@	c #9BCEFF",
"2@	c #9ECFFF",
"3@	c #9FCFFF",
"4@	c #B3DDFF",
"5@	c #B8E3FF",
"6@	c #ADDFFF",
"7@	c #ACDFFF",
"8@	c #A8DBFB",
"9@	c #6892B6",
"0@	c #E4E8EC",
"a@	c #F5F4F5",
"b@	c #819C81",
"c@	c #461F85",
"d@	c #39639C",
"e@	c #93C6F9",
"f@	c #99CCFF",
"g@	c #98CBFF",
"h@	c #A6D5FF",
"i@	c #B4DFFF",
"j@	c #ACDDFF",
"k@	c #AADDFF",
"l@	c #9FD2F5",
"m@	c #7697B6",
"n@	c #F1F3F4",
"o@	c #B4BDB4",
"p@	c #2E2C7D",
"q@	c #588ABE",
"r@	c #98CBFE",
"s@	c #90C8FF",
"t@	c #8EC7FF",
"u@	c #97CCFF",
"v@	c #B2DCFF",
"w@	c #B2DDFF",
"x@	c #A9DBFF",
"y@	c #A8DAFF",
"z@	c #8DC0E6",
"A@	c #8EA7BF",
"B@	c #F7F8F8",
"C@	c #CFD8CF",
"D@	c #243C80",
"E@	c #7BAEE1",
"F@	c #94CAFF",
"G@	c #85C2FF",
"H@	c #84C2FF",
"I@	c #88C4FF",
"J@	c #A8D6FF",
"K@	c #ACD9FF",
"L@	c #A6D8FF",
"M@	c #A5D8FF",
"N@	c #A4D7FF",
"O@	c #7DADD6",
"P@	c #AEBFCF",
"Q@	c #F3F2F3",
"R@	c #6F9D6F",
"S@	c #305791",
"T@	c #89C4FF",
"U@	c #7ABDFF",
"V@	c #7BBDFF",
"W@	c #9CCFFF",
"X@	c #A4D6FF",
"Y@	c #A3D6FF",
"Z@	c #A1D4FE",
"`@	c #6F9DC6",
" #	c #CBD5DF",
".#	c #B9BEB9",
"+#	c #2D277B",
"@#	c #4C7DB1",
"##	c #97CAFE",
"$#	c #78BCFF",
"%#	c #70B8FF",
"&#	c #89C5FF",
"*#	c #A3D3FF",
"=#	c #A2D3FF",
"-#	c #A0D3FF",
";#	c #9BCEFA",
">#	c #6993B9",
",#	c #E2E8ED",
"'#	c #E6D9E6",
")#	c #203279",
"!#	c #75A8DB",
"~#	c #8FC7FF",
"{#	c #69B4FF",
"]#	c #66B3FF",
"^#	c #76BBFF",
"/#	c #9ED1FF",
"(#	c #90C3F2",
"_#	c #7698BA",
":#	c #F1F4F6",
"<#	c #B2A3B2",
"[#	c #264B86",
"}#	c #8EC1F4",
"|#	c #7EBFFF",
"1#	c #5DAFFF",
"2#	c #5CAEFF",
"3#	c #5DABF8",
"4#	c #92C8FC",
"5#	c #80B2E4",
"6#	c #8FA9C3",
"7#	c #FBFCFD",
"8#	c #BDBCBD",
"9#	c #35267F",
"0#	c #4173A7",
"a#	c #94C9FD",
"b#	c #67B3FF",
"c#	c #52A9FF",
"d#	c #50A7FD",
"e#	c #3085D9",
"f#	c #7CB7F2",
"g#	c #71A2D3",
"h#	c #AEBFD1",
"i#	c #FEFEFF",
"j#	c #E4D9E4",
"k#	c #26317C",
"l#	c #679ACD",
"m#	c #8BC5FF",
"n#	c #52A8FF",
"o#	c #49A4FF",
"p#	c #3A93EC",
"q#	c #247AD1",
"r#	c #62A6EA",
"s#	c #6594C3",
"t#	c #CED8E2",
"u#	c #C6A9C6",
"v#	c #294585",
"w#	c #86B9EC",
"x#	c #75BAFF",
"y#	c #41A0FF",
"z#	c #3F9FFF",
"A#	c #3D9CFB",
"B#	c #2982DB",
"C#	c #267ED7",
"D#	c #4A97E5",
"E#	c #97CBFE",
"F#	c #95C8FB",
"G#	c #5E88B2",
"H#	c #EAEEF3",
"I#	c #BFBBBF",
"J#	c #3C2482",
"K#	c #3A699E",
"L#	c #92C7FB",
"M#	c #58ABFF",
"N#	c #369AFF",
"O#	c #308FF0",
"P#	c #2781DB",
"Q#	c #2882DD",
"R#	c #358CE3",
"S#	c #92C7FD",
"T#	c #90C3F5",
"U#	c #7394B2",
"V#	c #F7F9FA",
"W#	c #E4DDE4",
"X#	c #2B2C7C",
"Y#	c #5E91C4",
"Z#	c #8DC6FF",
"`#	c #409FFF",
" $	c #3399FF",
".$	c #3398FE",
"+$	c #2B89E7",
"@$	c #2A86E2",
"#$	c #2A87E4",
"$$	c #82BEFA",
"%$	c #D3F2FE",
"&$	c #9CBDCE",
"*$	c #BAC7D5",
"=$	c #D7ACD7",
"-$	c #253C7F",
";$	c #7FB2E5",
">$	c #79BCFF",
",$	c #3296FB",
"'$	c #2B8AE9",
")$	c #2C8BEB",
"!$	c #2D8DED",
"~$	c #67B0F8",
"{$	c #9DCEFF",
"]$	c #D4F1F6",
"^$	c #8DACC1",
"/$	c #C6D2DD",
"($	c #E7E4E7",
"_$	c #D2CBD2",
":$	c #879687",
"<$	c #315C94",
"[$	c #91C4F7",
"}$	c #5DAEFF",
"|$	c #3094F7",
"1$	c #2E8FEF",
"2$	c #2E90F2",
"3$	c #2F92F4",
"4$	c #50A4F9",
"5$	c #9ACCFF",
"6$	c #CDEEFD",
"7$	c #B0CEDA",
"8$	c #91A9BB",
"9$	c #D2D7DB",
"0$	c #CCC7CF",
"a$	c #BEA1BE",
"b$	c #AA7DAA",
"c$	c #9D469D",
"d$	c #2B297B",
"e$	c #5385B8",
"f$	c #91C8FE",
"g$	c #43A1FF",
"h$	c #3194F8",
"i$	c #3093F7",
"j$	c #3195F9",
"k$	c #3B9CFE",
"l$	c #95CAFF",
"m$	c #98CCFF",
"n$	c #B1DDFF",
"o$	c #B9DDEF",
"p$	c #6B95B9",
"q$	c #587698",
"r$	c #57708D",
"s$	c #534887",
"t$	c #21357A",
"u$	c #79ACDF",
"v$	c #80C0FF",
"w$	c #3698FB",
"x$	c #3297FB",
"y$	c #3298FD",
"z$	c #3399FE",
"A$	c #359AFF",
"B$	c #94C9FF",
"C$	c #82C0FF",
"D$	c #82C2FF",
"E$	c #A6D8FD",
"F$	c #84B3D6",
"G$	c #2C69B4",
"H$	c #114FA1",
"I$	c #103476",
"J$	c #401F7E",
"K$	c #264F88",
"L$	c #92C5F9",
"M$	c #65B2FF",
"N$	c #3499FF",
"O$	c #389BFF",
"P$	c #3A9CFF",
"Q$	c #3B9DFF",
"R$	c #6FB7FF",
"S$	c #92C9FF",
"T$	c #7DBEFF",
"U$	c #72B8FF",
"V$	c #6CB5FF",
"W$	c #85C5FF",
"X$	c #A5D5F4",
"Y$	c #588EC1",
"Z$	c #1A5FB5",
"`$	c #0A438A",
" %	c #242A76",
".%	c #5C1585",
"+%	c #362580",
"@%	c #4477AA",
"#%	c #93C9FF",
"$%	c #51A8FF",
"%%	c #3D9EFF",
"&%	c #91C8FF",
"*%	c #86C2FF",
"=%	c #6CB6FF",
"-%	c #66B2FF",
";%	c #73BAFF",
">%	c #9FD6FF",
",%	c #8CBADA",
"'%	c #2F70B7",
")%	c #1359AD",
"!%	c #0B3776",
"~%	c #272F7A",
"{%	c #70A3D6",
"]%	c #86C3FF",
"^%	c #47A3FF",
"/%	c #45A2FF",
"(%	c #48A3FF",
"_%	c #50A7FF",
":%	c #81C0FF",
"<%	c #74BAFF",
"[%	c #68B4FF",
"}%	c #63B1FF",
"|%	c #6BB5FF",
"1%	c #6DB6FF",
"2%	c #88C7FF",
"3%	c #ACDBF9",
"4%	c #6095C1",
"5%	c #216DC2",
"6%	c #0B498C",
"7%	c #1E2B74",
"8%	c #5D1484",
"9%	c #1F4781",
"0%	c #8ABDF0",
"a%	c #4BA4FF",
"b%	c #4BA5FF",
"c%	c #4DA6FF",
"d%	c #50A8FF",
"e%	c #8CC5FF",
"f%	c #7EBEFF",
"g%	c #62B1FF",
"h%	c #5EAFFF",
"i%	c #60B0FF",
"j%	c #6EB7FF",
"k%	c #78BDFF",
"l%	c #A1D6FE",
"m%	c #92C1E0",
"n%	c #3679BB",
"o%	c #1864B5",
"p%	c #093772",
"q%	c #3F207D",
"r%	c #3B2280",
"s%	c #3B6CA0",
"t%	c #93C8FC",
"u%	c #65B3FF",
"v%	c #55AAFF",
"w%	c #6AB4FF",
"x%	c #60AFFF",
"y%	c #67B2FF",
"z%	c #69B3FF",
"A%	c #6AB5FF",
"B%	c #8CC9FF",
"C%	c #A9D8F6",
"D%	c #6AA0CC",
"E%	c #2573C1",
"F%	c #125499",
"G%	c #1B2C73",
"H%	c #5A1483",
"I%	c #292F7C",
"J%	c #6194C7",
"K%	c #8EC6FF",
"L%	c #5FAFFF",
"M%	c #59ABFF",
"N%	c #5BADFF",
"O%	c #64B1FF",
"P%	c #68B3FF",
"Q%	c #6EB6FF",
"R%	c #72B9FF",
"S%	c #7EC0FF",
"T%	c #A2D7FF",
"U%	c #94C3E2",
"V%	c #4383BF",
"W%	c #1E69B4",
"X%	c #113D7D",
"Y%	c #35227A",
"Z%	c #244382",
"`%	c #81B4E7",
" &	c #82C1FF",
".&	c #70B7FF",
"+&	c #91CBFF",
"@&	c #AAD9F8",
"#&	c #6FA3CC",
"$&	c #327AC2",
"%&	c #18599C",
"&&	c #1C2E74",
"*&	c #521882",
"=&	c #3F2283",
"-&	c #36639A",
";&	c #92C6F9",
">&	c #77BBFF",
",&	c #71B8FF",
"'&	c #74B9FF",
")&	c #76BAFF",
"!&	c #7ABCFF",
"~&	c #83C2FF",
"{&	c #98C6E4",
"]&	c #508EC6",
"^&	c #2C73BB",
"/&	c #11407E",
"(&	c #342279",
"_&	c #2A2B7A",
":&	c #588BBE",
"<&	c #94C9FE",
"[&	c #73B9FF",
"}&	c #92CCFF",
"|&	c #ADDCFB",
"1&	c #73A5CC",
"2&	c #4286C9",
"3&	c #1E5C9B",
"4&	c #1B2F74",
"5&	c #531782",
"6&	c #1A3A79",
"7&	c #7EB1E4",
"8&	c #7FBFFF",
"9&	c #A6D9FF",
"0&	c #A1CDEA",
"a&	c #5790C3",
"b&	c #3A7DBF",
"c&	c #10457E",
"d&	c #34247B",
"e&	c #4A1E85",
"f&	c #265289",
"g&	c #87C3FF",
"h&	c #83C1FF",
"i&	c #94CDFF",
"j&	c #B2E0FC",
"k&	c #7AAACF",
"l&	c #4988C6",
"m&	c #2864A0",
"n&	c #173072",
"o&	c #541883",
"p&	c #2D277A",
"q&	c #4C7EB2",
"r&	c #97CBFF",
"s&	c #8AC5FF",
"t&	c #A6D3EF",
"u&	c #6095C5",
"v&	c #4786C5",
"w&	c #15457F",
"x&	c #2E2578",
"y&	c #1A3275",
"z&	c #73A6D9",
"A&	c #8AC4FF",
"B&	c #9ED0FA",
"C&	c #79AAD4",
"D&	c #548EC5",
"E&	c #346DA7",
"F&	c #173172",
"G&	c #4B1B80",
"H&	c #224D85",
"I&	c #8CBFF2",
"J&	c #96CBFF",
"K&	c #87BBED",
"L&	c #6498CB",
"M&	c #4F87C0",
"N&	c #1A4B83",
"O&	c #2F2477",
"P&	c #34277F",
"Q&	c #3D6FA3",
"R&	c #6EA1D4",
"S&	c #6095CA",
"T&	c #3D73A8",
"U&	c #1B3677",
"V&	c #451D7F",
"W&	c #1B2F75",
"X&	c #2B5F92",
"Y&	c #225288",
"Z&	c #2E2778",
"`&	c #322073",
" *	c #471B7E",
"                                                                                          .                             ",
"                                                                                  + @ # $ %                             ",
"                                                                          & * = - ; > , , ' )                           ",
"                                                                ! ~ { ] ^ / ( , , _ > : > , <                           ",
"                                                        [ } | 1 2 3 _ , , ( 3 4 5 6 7 8 5 , 9                           ",
"                                              0 a b c d e f , , , f : 2 g h 7 i i i i i j _ > k                         ",
"                                      l m n o p > _ , , _ q r s t u 7 v v v v v v v v v v 3 , w                         ",
"                            x y z A B C _ , , _ ' : D E F G H I J K L 7 7 7 7 7 7 7 7 7 7 M , N O                       ",
"                            P , , , _ ( Q / ; R h S T U V W X X X Y Z ` h h h h h h h h h  ._ f ..                      ",
"                            +., _ 4 5  .@.@.@.#.$.%.&.*.=.=.=.=.=.=.-.;.>.@.@.@.@.@.@.@.@.@.3 , ,.                      ",
"                            '., _ 5 6 6 6 6 ).!.~.{.].].].].].].].].].^./.(.6 6 6 6 6 6 6 6 D , _.:.                    ",
"                              > , D  . .<.[.}.|.1.2.2.2.2.2.2.2.2.2.2.2.3.4. . . . . . . . .5._ f 6.                    ",
"                              g , : R 7.8.9.0.a.a.a.a.a.a.a.a.a.a.a.a.a.b.c.d.R R R R R R R g Q , e.                    ",
"                              f., g.h.i.j.k.l.l.l.l.l.l.l.l.l.l.l.l.l.k.m.n.o.p.g g g g g g g 4 , q.r.                  ",
"                              s.t.u.v.w.x.x.x.x.x.x.x.x.x.x.x.x.x.x.x.y.z.z.A.B.5.5.5.5.5.5.5.; _ ( C.                  ",
"                              D.E.F.F.F.F.F.F.F.F.F.F.F.F.F.F.F.F.F.G.H.I.I.I.J.5 5 5 5 5 5 5 5 > , K.                  ",
"                          L.M.N.O.P.P.P.P.P.P.P.P.P.P.P.P.P.P.P.P.P.Q.R.R.R.S.T.q.q.q.q.q.q.q.q.U., D V.                ",
"                      W.X.Y.Z.`. +.+.+.+.+.+.+.+.+.+.+.+.+.+.+.+.+++@+#+#+#+$+%+; ; ; ; ; ; ; ; D _ _ &+                ",
"                  *+=+-+;+>+,+'+)+!+!+!+!+!+!+!+!+!+!+!+!+!+!+!+~+{+]+]+]+]+^+/+2 2 2 2 2 2 2 2 2 f , (+                ",
"                _+:+<+[+}+|+1+1+2+3+3+3+3+3+3+3+3+3+3+3+3+3+3+4+5+6+6+6+6+6+7+8+9+D D D D D D D D 0+, 4 a+              ",
"            b+c+d+e+f+g+h+h+h+h+i+)+j+j+j+j+j+j+j+j+j+j+j+j+k+l+m+m+m+m+m+m+m+n+o+p+q+q+q+q+q+q+q+U._ , r+              ",
"        s+t+u+v+w+x+y+z+z+z+z+z+z+A+B+B+B+B+B+B+B+B+B+B+B+C+D+E+E+E+E+E+E+E+E+E+F+G+H+4 4 4 4 4 4 / ' , I+              ",
"      J+K+L+M+N+O+P+P+P+P+P+P+P+P+Q+R+R+R+R+R+R+R+R+R+R+S+T+U+U+U+U+U+U+U+U+U+U+U+V+W+X+/ / / / / / Q , Y+Z+            ",
"  `+ @.@+@@@#@$@$@$@$@$@$@$@$@$@$@%@&@2+2+2+2+2+2+2+2+*@=@-@-@-@-@-@-@-@-@-@-@-@-@-@;@>@U.e e e e e 0+, _ ,@            ",
"  '@)@!@~@{@{@{@{@{@{@{@{@{@{@{@{@]@^@g+g+g+g+g+g+g+/@(@_@_@_@_@_@_@_@_@_@_@_@_@_@_@_@:@<@: : : : : : ( , [@            ",
"    }@|@1@2@2@2@2@2@2@2@2@2@2@2@2@3@4@Q+Q+Q+Q+Q+Q+5@6@7@7@7@7@7@7@7@7@7@7@7@7@7@7@7@7@8@9@0@0+0+0+0+0+f , a@b@          ",
"    c@d@e@f@g@g@g@g@g@g@g@g@g@g@g@g@h@z+z+z+z+z+i@j@k@k@k@k@k@k@k@k@k@k@k@k@k@k@k@k@k@k@l@m@n@3 3 3 3 Q , ( o@          ",
"      p@q@r@s@t@t@t@t@t@t@t@t@t@t@t@u@v@w@w@w@P+x@y@y@y@y@y@y@y@y@y@y@y@y@y@y@y@y@y@y@y@y@z@A@B@Q Q Q Q _ , C@          ",
"        D@E@F@G@H@H@H@H@H@H@H@H@H@H@I@J@#@#@K@L@M@M@M@M@M@M@M@M@M@M@M@M@M@M@M@M@M@M@M@M@M@N@O@P@> > > > ( , Q@R@        ",
"          S@e@T@U@U@U@U@U@U@U@U@U@U@V@W@J@J@X@Y@Y@Y@Y@Y@Y@Y@Y@Y@Y@Y@Y@Y@Y@Y@Y@Y@Y@Y@Y@Y@Y@Y@Z@`@ #f f f ' , ( .#        ",
"          +#@###$#%#%#%#%#%#%#%#%#%#%#&#*#=#-#-#-#-#-#-#-#-#-#-#-#-#-#-#-#-#-#-#-#-#-#-#-#-#-#;#>#,#( ( ( , , '#        ",
"            )#!#~#{#]#]#]#]#]#]#]#]#]#^#W@/#/#/#/#/#/#/#/#/#/#/#/#/#/#/#/#/#/#/#/#/#/#/#/#/#/#/#(#_#:#_ _ , , 4 <#      ",
"              [#}#|#1#2#2#2#2#2#2#2#2#3#4#1@1@1@1@1@1@1@1@1@1@1@1@1@1@1@1@1@1@1@1@1@1@1@1@1@1@1@1@5#6#7#, , , ( 8#      ",
"              9#0#a#b#c#c#c#c#c#c#c#d#e#f#f@f@f@f@f@f@f@f@f@f@f@f@f@f@f@f@f@f@f@f@f@f@f@f@f@f@f@f@f@g#h#i#, , , j#      ",
"                k#l#m#n#o#o#o#o#o#o#p#q#r#f@f@f@f@f@f@f@f@f@f@f@f@f@f@f@f@f@f@f@f@f@f@f@f@f@f@f@f@f@r@s#t#, , , 4 u#    ",
"                  v#w#x#y#z#z#z#z#A#B#C#D#E#f@f@f@f@f@f@f@f@f@f@f@f@f@f@f@f@f@f@f@f@f@f@f@f@f@f@f@f@f@F#G#H#, , _ I#    ",
"                  J#K#L#M#N#N#N#N#O#P#Q#R#S#f@f@f@f@f@f@f@f@f@f@f@f@f@f@f@f@f@f@f@f@f@f@f@f@f@f@f@f@f@f@T#U#V#, , W#    ",
"                    X#Y#Z#`# $ $.$+$@$#$+$$$f@f@f@f@f@f@f@f@f@f@f@f@f@f@f@f@f@f@f@f@f@f@f@f@f@f@f@f@f@]@%$&$*$, , U.=$  ",
"                      -$;$>$N# $,$+$'$)$!$~$f@f@f@f@f@f@f@f@f@f@f@f@f@f@f@f@f@f@f@f@f@f@f@f@f@f@f@{$Q+]$^$/$' : ($_$:$  ",
"                        <$[$}$ $|$!$1$2$3$4$g@f@f@f@f@f@f@f@f@f@f@f@f@f@f@f@f@f@f@f@f@f@f@f@f@5$J@6$7$8$9$0$a$b$c$      ",
"                        d$e$f$g$h$3$i$j$,$k$l$f@f@f@f@f@f@f@f@f@f@f@f@f@f@f@f@f@f@f@f@f@f@f@m$n$o$p$q$r$s$              ",
"                          t$u$v$w$x$y$z$A$N#G@f@f@f@f@f@f@f@f@f@f@f@f@f@f@f@f@f@f@f@B$Z#C$D$E$F$G$H$I$J$                ",
"                            K$L$M$N$N#O$P$Q$R$f@f@f@f@f@f@f@f@f@f@f@f@f@f@f@S$T@T$U$V${#W$X$Y$Z$`$ %.%                  ",
"                            +%@%#%$%Q$%%z#y#}$f@f@f@f@f@f@f@f@f@f@f@&%*%>$=%b#-%b#{#;%>%,%'%)%!%J$                      ",
"                              ~%{%]%^%g$/%(%_%m$f@f@f@f@f@f@~#:%<%[%}%}%M$b#{#|%1%2%3%4%5%6%7%8%                        ",
"                                9%0%^#a%b%c%d%m#g@l$e%f%R$g%h%i%}%M$b#{#|%1%j%k%l%m%n%o%p%q%                            ",
"                                r%s%t%u%d%c#v%w%|%x%}$h%i%g%M$y%z%A%=%j%%#;%B%C%D%E%F%G%H%                              ",
"                                  I%J%K%L%M%N%2#h%i%g%O%-%P%w%V$Q%%#R%<%S%T%U%V%W%X%Y%                                  ",
"                                    Z%`% &L%i%g%O%-%P%w%V$Q%.&R%<%^#>$+&@&#&$&%&&&*&                                    ",
"                                    =&-&;&>&-%P%w%V$Q%.&,&'&)&>&!&~&M@{&]&^&/&(&                                        ",
"                                      _&:&<&U$1%R$,&[&x#>&>$V@|#}&|&1&2&3&4&5&                                          ",
"                                        6&7&Z#[&x#>&>$V@T$8&]%9&0&a&b&c&d&                                              ",
"                                        e&f&e@g&V@T$8&:%h&i&j&k&l&m&n&o&                                                ",
"                                          p&q&r&*% &H@s&Y@t&u&v&w&x&                                                    ",
"                                            y&z&F@A&s@B&C&D&E&F&G&                                                      ",
"                                              H&I&J&K&L&M&N&O&                                                          ",
"                                              P&Q&R&S&T&U&V&                                                            ",
"                                                W&X&Y&Z&                                                                ",
"                                                  `& *                                                                  ",
"                                                                                                                        "};
