/* XPM */
static char * ft_image_xpm[] = {
"32 32 436 2",
"  	c None",
". 	c #ADF7B2",
"+ 	c #D2F5D8",
"@ 	c #C3F4CB",
"# 	c #B1BF71",
"$ 	c #C2A06C",
"% 	c #D2FBD4",
"& 	c #D4FAD7",
"* 	c #D2F7D9",
"= 	c #DAE3F5",
"- 	c #BCCCEB",
"; 	c #9EB7E2",
"> 	c #EBEFFB",
", 	c #EFBA59",
"' 	c #C27B5C",
") 	c #CCFACF",
"! 	c #D1FAD3",
"~ 	c #D4FBD7",
"{ 	c #E7EDF8",
"] 	c #CAD8EF",
"^ 	c #AEC3E7",
"/ 	c #91AFDF",
"( 	c #799ED8",
"_ 	c #789FDA",
": 	c #79A1DC",
"< 	c #7BA4DF",
"[ 	c #C9D9F4",
"} 	c #AAE4B2",
"| 	c #BFB466",
"1 	c #F69F42",
"2 	c #C3F7C9",
"3 	c #CCF8D1",
"4 	c #E0F9E5",
"5 	c #DFF1EC",
"6 	c #D1DCF1",
"7 	c #B7CAEA",
"8 	c #9DB8E2",
"9 	c #84A6DC",
"0 	c #80A4DC",
"a 	c #82A7DE",
"b 	c #83AAE1",
"c 	c #85ACE3",
"d 	c #86AFE5",
"e 	c #88B1E7",
"f 	c #89B4EA",
"g 	c #8BB7ED",
"h 	c #B0CEF4",
"i 	c #C3E6CB",
"j 	c #F2BB5C",
"k 	c #E37640",
"l 	c #BAEEC5",
"m 	c #C4F2CE",
"n 	c #DAF4E4",
"o 	c #D7F1E5",
"p 	c #D4DDF3",
"q 	c #B8CAEA",
"r 	c #9EB8E2",
"s 	c #85A6DC",
"t 	c #7BA0DA",
"u 	c #80A5DD",
"v 	c #84AAE0",
"w 	c #88AEE3",
"x 	c #8BB2E6",
"y 	c #8EB5E8",
"z 	c #90B8EB",
"A 	c #95BEEF",
"B 	c #9BC5F4",
"C 	c #9AC7F6",
"D 	c #98C5F6",
"E 	c #98C7F8",
"F 	c #9AC9FA",
"G 	c #A1CFFD",
"H 	c #E5F5F0",
"I 	c #C4BC73",
"J 	c #F2953F",
"K 	c #BEE6C9",
"L 	c #DAE1F6",
"M 	c #9FB7E3",
"N 	c #84A4DB",
"O 	c #7198D6",
"P 	c #759DD9",
"Q 	c #7AA2DD",
"R 	c #80A8E0",
"S 	c #85ADE4",
"T 	c #89B2E7",
"U 	c #8EB6EA",
"V 	c #96BFF0",
"W 	c #99C3F2",
"X 	c #9FC8F5",
"Y 	c #A4CFF9",
"Z 	c #A5D1FC",
"` 	c #A1CFFC",
" .	c #A3D1FE",
"..	c #A5D3FF",
"+.	c #A7D4FF",
"@.	c #AAD7FF",
"#.	c #ADD9FF",
"$.	c #E4EFFF",
"%.	c #B1DFBA",
"&.	c #A4A667",
"*.	c #FEB859",
"=.	c #DD6F41",
"-.	c #D5DEF6",
";.	c #76A0DD",
">.	c #7BA5E1",
",.	c #7FAAE4",
"'.	c #84AFE7",
").	c #92BDEF",
"!.	c #A1CDF8",
"~.	c #AAD4FB",
"{.	c #A5D1FA",
"].	c #A1CDFA",
"^.	c #ACD6FC",
"/.	c #AFD9FE",
"(.	c #ABD6FF",
"_.	c #ABD7FF",
":.	c #AED9FF",
"<.	c #B1DBFF",
"[.	c #B4DDFF",
"}.	c #B7DFFF",
"|.	c #BAE1FF",
"1.	c #BDE4FF",
"2.	c #C1E6FF",
"3.	c #DAEEFF",
"4.	c #B8E6CB",
"5.	c #DDC078",
"6.	c #ED8C3D",
"7.	c #EEF0FE",
"8.	c #88B4EB",
"9.	c #8AB8EE",
"0.	c #8FBDF1",
"a.	c #93C2F4",
"b.	c #9CCAF8",
"c.	c #B2DDFD",
"d.	c #B6E1FF",
"e.	c #B1DCFF",
"f.	c #B5DEFF",
"g.	c #C6EAFF",
"h.	c #BCE2FF",
"i.	c #B5DDFF",
"j.	c #B9E0FF",
"k.	c #C0E5FF",
"l.	c #C3E7FF",
"m.	c #C7EAFF",
"n.	c #CAECFF",
"o.	c #CDEEFF",
"p.	c #D1F0FF",
"q.	c #C0DEF6",
"r.	c #9DB2E3",
"s.	c #E6D7B1",
"t.	c #FCB255",
"u.	c #D96C42",
"v.	c #C9E4C4",
"w.	c #A8D0FB",
"x.	c #99CAFC",
"y.	c #9DCEFE",
"z.	c #A2D1FF",
"A.	c #A6D4FF",
"B.	c #B0DBFF",
"C.	c #C6E9FF",
"D.	c #CBECFF",
"E.	c #C4E7FF",
"F.	c #CAEBFF",
"G.	c #CCECFF",
"H.	c #CEEEFF",
"I.	c #D2F1FF",
"J.	c #D6F3FF",
"K.	c #D9F5FF",
"L.	c #CBE7F7",
"M.	c #7896D4",
"N.	c #7A93D5",
"O.	c #6A7ECD",
"P.	c #767DBE",
"Q.	c #FDC571",
"R.	c #E8843C",
"S.	c #B8E5C4",
"T.	c #C5E0FF",
"U.	c #B0DAFF",
"V.	c #B4DEFF",
"W.	c #C0E4FF",
"X.	c #CBEBFF",
"Y.	c #DCF6FF",
"Z.	c #D7F4FF",
"`.	c #CFEFFF",
" +	c #DAF6FF",
".+	c #DBF7FF",
"++	c #DDF8FF",
"@+	c #E1FAFF",
"#+	c #E4FCFF",
"$+	c #E7FEFF",
"%+	c #E4FBFE",
"&+	c #85A3D8",
"*+	c #6C87CF",
"=+	c #6B80CE",
"-+	c #6A7ACC",
";+	c #C8A68B",
">+	c #FAAA50",
",+	c #CA6C4E",
"'+	c #C0D792",
")+	c #DFEDFF",
"!+	c #E9F5FF",
"~+	c #EAF6FF",
"{+	c #F6FCFF",
"]+	c #F5FEFF",
"^+	c #F4FFFF",
"/+	c #EDFDFF",
"(+	c #E7FCFF",
"_+	c #E8FEFF",
":+	c #E5FDFF",
"<+	c #E6FDFF",
"[+	c #EBFFFF",
"}+	c #ECFFFF",
"|+	c #EEFFFF",
"1+	c #C8E0F0",
"2+	c #8BABDA",
"3+	c #6488C7",
"4+	c #537BB7",
"5+	c #4E78B2",
"6+	c #75829C",
"7+	c #FEC46F",
"8+	c #DE7F3D",
"9+	c #B2A2B3",
"0+	c #F3F4FF",
"a+	c #FFFFFF",
"b+	c #FEFFFF",
"c+	c #FDFFFF",
"d+	c #EAFFFF",
"e+	c #F0FFFF",
"f+	c #F2FFFF",
"g+	c #F4FDFE",
"h+	c #A7C6E4",
"i+	c #6D9ACF",
"j+	c #658FC8",
"k+	c #4F81B3",
"l+	c #5184B5",
"m+	c #5586B7",
"n+	c #D9B67F",
"o+	c #F6A148",
"p+	c #846663",
"q+	c #CACBD8",
"r+	c #F2F0F0",
"s+	c #FEFEFF",
"t+	c #FCFFFF",
"u+	c #F6FFFF",
"v+	c #E4EBF9",
"w+	c #B9BDEB",
"x+	c #BDC0ED",
"y+	c #A5AFE2",
"z+	c #A8C0E2",
"A+	c #6E9DCD",
"B+	c #6495C7",
"C+	c #5F91C2",
"D+	c #6294C5",
"E+	c #6698CA",
"F+	c #9CA19E",
"G+	c #FFC36F",
"H+	c #D17943",
"I+	c #708CAB",
"J+	c #D4DEF2",
"K+	c #A7D6B4",
"L+	c #C3E0D0",
"M+	c #FBFBFF",
"N+	c #F4F7FD",
"O+	c #BABBED",
"P+	c #9C9CE5",
"Q+	c #99A2E2",
"R+	c #839AD7",
"S+	c #6592C5",
"T+	c #6799C9",
"U+	c #6C9ECF",
"V+	c #74A6D7",
"W+	c #7EB0E1",
"X+	c #8CBCEC",
"Y+	c #A7C8EA",
"Z+	c #F2C684",
"`+	c #F29741",
" @	c #A6857E",
".@	c #BCCFDE",
"+@	c #D7E9FE",
"@@	c #C9E6C5",
"#@	c #B7D5AF",
"$@	c #F7F8FF",
"%@	c #EAEAFD",
"&@	c #C8C8F8",
"*@	c #AEB7EF",
"=@	c #92ADE1",
"-@	c #6A9CCD",
";@	c #71A3D5",
">@	c #7BADDE",
",@	c #86B7E8",
"'@	c #95C4F2",
")@	c #B2D6F9",
"!@	c #C9E4FD",
"~@	c #D4ECFF",
"{@	c #D8EEFF",
"]@	c #E7CEA7",
"^@	c #FEBD67",
"/@	c #C87549",
"(@	c #7A9CBC",
"_@	c #96C5F3",
":@	c #A2CFFB",
"<@	c #E0EEF1",
"[@	c #9AD588",
"}@	c #F4F4FF",
"|@	c #FDFDFF",
"1@	c #E5E5FF",
"2@	c #D9DAFF",
"3@	c #A8C5F0",
"4@	c #82B4E6",
"5@	c #8BBDF0",
"6@	c #9ECBF7",
"7@	c #B3D8FC",
"8@	c #BEE0FF",
"9@	c #C8E6FF",
"0@	c #CCE8FF",
"a@	c #BEE3FF",
"b@	c #B0DCFF",
"c@	c #ACD9FE",
"d@	c #B0CEE3",
"e@	c #FBC675",
"f@	c #ED8E3C",
"g@	c #867983",
"h@	c #85B0D6",
"i@	c #9BCAF1",
"j@	c #94C5EE",
"k@	c #DEE8FC",
"l@	c #F0F0FF",
"m@	c #E8EEFF",
"n@	c #D9EAFE",
"o@	c #CEE6FF",
"p@	c #C5E3FF",
"q@	c #C2E2FF",
"r@	c #CAE6FF",
"s@	c #C2E3FF",
"t@	c #AEDAFF",
"u@	c #A6D5FD",
"v@	c #AAD9FC",
"w@	c #B2DEFB",
"x@	c #B2DEFA",
"y@	c #DFBF8D",
"z@	c #FCB458",
"A@	c #C1734F",
"B@	c #769BB4",
"C@	c #93C3E4",
"D@	c #9DD0F5",
"E@	c #97C7F0",
"F@	c #C5D7F4",
"G@	c #B5DCC5",
"H@	c #E1EAE1",
"I@	c #FAFBFF",
"J@	c #FCFDFF",
"K@	c #F7FCFF",
"L@	c #F1FAFF",
"M@	c #DEEEFF",
"N@	c #D5EFFF",
"O@	c #BCE2FB",
"P@	c #C6E6FB",
"Q@	c #C4E5FA",
"R@	c #BCE4FA",
"S@	c #C3EEFD",
"T@	c #CCF5FF",
"U@	c #CDDBCE",
"V@	c #FFC367",
"W@	c #E8863A",
"X@	c #8B828E",
"Y@	c #A7C1DD",
"Z@	c #D1E4FE",
"`@	c #E2EAFF",
" #	c #EDEAFF",
".#	c #E9DCF9",
"+#	c #C5D7D5",
"@#	c #E0DAB9",
"##	c #F5F9FF",
"$#	c #F3FFFF",
"%#	c #EDFEFF",
"&#	c #E6FEFF",
"*#	c #D9FBFF",
"=#	c #E0FBFF",
"-#	c #D6F8FF",
";#	c #D3F6FF",
">#	c #CBF1FF",
",#	c #D1ECFC",
"'#	c #F0C077",
")#	c #FAA94A",
"!#	c #C27559",
"~#	c #B4B0C0",
"{#	c #E2D0F1",
"]#	c #E6CAF4",
"^#	c #C0DBB7",
"/#	c #F0F5FF",
"(#	c #FBFFFF",
"_#	c #F9FFFF",
":#	c #E9FEFF",
"<#	c #ECFEFF",
"[#	c #DBF9FF",
"}#	c #DAF5FF",
"|#	c #F3F6FF",
"1#	c #E5F0FF",
"2#	c #EBEFFF",
"3#	c #EEE4FD",
"4#	c #ECE5EF",
"5#	c #A49680",
"6#	c #D18251",
"7#	c #90266B",
"8#	c #EDF0FF",
"9#	c #F9FEFF",
"0#	c #F9FBFF",
"a#	c #E4F7FF",
"b#	c #E5F3FF",
"c#	c #EFF0FF",
"d#	c #EEE8FE",
"e#	c #EADEFA",
"f#	c #EADDFA",
"g#	c #ACD2AC",
"h#	c #636566",
"i#	c #DACCDF",
"j#	c #ECECFF",
"k#	c #EAF0FF",
"l#	c #ECEBFF",
"m#	c #EADFFB",
"n#	c #EADAFA",
"o#	c #9C9B9C",
"p#	c #9894A3",
"q#	c #ECD59F",
"r#	c #B2C9B2",
"s#	c #616366",
"t#	c #9D9794",
"u#	c #A296AF",
"v#	c #BF8E4F",
"w#	c #875535",
"x#	c #886F51",
"y#	c #A97633",
"z#	c #774139",
"A#	c #995A3A",
"B#	c #834E30",
"C#	c #772933",
"                                                                ",
"                                                                ",
"                                          . + @           # $   ",
"                                  % & * = - ; >           , '   ",
"                        ) ! ~ { ] ^ / ( _ : < [ }       | 1     ",
"              2 3 4 5 6 7 8 9 0 a b c d e f g h i       j k     ",
"    l m n o p q r s t u v w x y z A B C D E F G H     I J       ",
"  K L M N O P Q R S T U A V W X Y Z `  ...+.@.#.$.%.&.*.=.      ",
"    -.;.>.,.'.f ).!.~.{.].^./.(._.:.<.[.}.|.1.2.3.4.5.6.        ",
"    7.8.9.0.a.b.c.d.e.f.g.h.i.j.h.k.l.m.n.o.p.q.r.s.t.u.        ",
"    v.w.x.y.z.A._.B.C.D.2.E.F.G.H.I.J.K.L.M.N.O.P.Q.R.          ",
"    S.T.@.U.V.W.X.Y.Z.`. +.+K.++@+#+$+%+&+*+=+-+;+>+,+          ",
"    '+)+!+~+{+]+^+/+(+_+:+<+_+[+}+|+1+2+3+4+5+6+7+8+9+          ",
"      0+a+a+b+b+c+b+d+[+|+e+f+^+g+h+i+j+k+l+m+n+o+p+q+          ",
"      r+s+a+a+a+a+a+t+u+v+w+x+y+z+A+B+C+D+E+F+G+H+I+J+K+        ",
"      L+M+a+a+b+c+N+O+P+Q+R+S+D+T+U+V+W+X+Y+Z+`+ @.@+@@@        ",
"      #@$@a+a+a+%@&@*@=@-@;@>@,@'@)@!@~@{@]@^@/@(@_@:@<@        ",
"      [@}@a+|@1@2@3@4@5@6@7@8@9@0@a@b@c@d@e@f@g@h@i@j@k@        ",
"        l@l@m@n@o@p@q@r@s@}._.t@u@v@w@x@y@z@A@B@C@D@E@F@G@      ",
"        H@I@J@b+K@L@M@N@m.O@P@Q@R@S@T@U@V@W@X@Y@Z@`@ #.#+#      ",
"        @###a+t+$#%#}+&#%#*#=#-#;#>#,#'#)#!#~#{#]#              ",
"        ^#/#(#u+_#t+:#<#[#}#|#1#2#3#4#5#6#7#                    ",
"          8#u+9#0#a#b#c#d#e#f#      g#h#i#                      ",
"          j#k#l#m#n#                o#p#                        ",
"          q#                      r#s#                          ",
"                                  t#u#                          ",
"                                v#w#                            ",
"                              x#y#z#                            ",
"                              A#B#                              ",
"                              C#                                ",
"                                                                ",
"                                                                "};
