/* XPM */
static char * ft_folder_big[] = {
"60 60 256 2",
"aa c #9ccdd5",
"ab c #628bac",
"ac c #73a4c5",
"ad c #418b7b",
"ae c #9cc5cd",
"af c #8bacb4",
"ag c #4a7373",
"ah c #41a4f6",
"ai c #a4b4ac",
"aj c #41626a",
"ak c #8b9ca4",
"al c #cddee6",
"am c #83b4b4",
"an c #7b8b94",
"ao c #8ba4a4",
"ap c #6a9c94",
"ba c #94a4a4",
"bb c #cde6e6",
"bc c #208bee",
"bd c #73bdf6",
"be c #bdc5bd",
"bf c #7bbdff",
"bg c #acd5f6",
"bh c #a4acac",
"bi c #8bc5f6",
"bj c #8bacac",
"bk c #419cf6",
"bl c #a4d5d5",
"bm c #629c9c",
"bn c #4a736a",
"bo c #298be6",
"bp c #738b83",
"ca c #8b9c94",
"cb c #3183c5",
"cc c #b4b4bd",
"cd c #bdeef6",
"ce c #418373",
"cf c #3194ee",
"cg c #52acff",
"ch c #83a4a4",
"ci c #9cbdc5",
"cj c #5a8b94",
"ck c #fff6f6",
"cl c #838b94",
"cm c #739cac",
"cn c #bddee6",
"co c #dee6e6",
"cp c #c5f6ff",
"da c #83b4de",
"db c #bde6f6",
"dc c #bdffff",
"dd c #18396a",
"de c #acbdc5",
"df c #5a7b94",
"dg c #d5eee6",
"dh c #c5cdcd",
"di c #4aacff",
"dj c #accdd5",
"dk c #5a736a",
"dl c #dee6de",
"dm c #6a838b",
"dn c #6ab4f6",
"do c #6a8b8b",
"dp c #acbdbd",
"ea c #4a7b73",
"eb c #a4a4ac",
"ec c #739ca4",
"ed c #d5e6e6",
"ee c #a4bdcd",
"ef c #a4d5cd",
"eg c #629c94",
"eh c #207bde",
"ei c #94a4ac",
"ej c #316a6a",
"ek c #6a9c9c",
"el c #d5ded5",
"em c #6aa4a4",
"en c #628b94",
"eo c #def6f6",
"ep c #8bbdee",
"fa c #5a9494",
"fb c #9ccdcd",
"fc c #396283",
"fd c #399cf6",
"fe c #4a6a73",
"ff c #acb4b4",
"fg c #204a62",
"fh c #a4bdc5",
"fi c #9ca4a4",
"fj c #b4c5c5",
"fk c #6abdf6",
"fl c #83a4bd",
"fm c #73a4ac",
"fn c #8bbdd5",
"fo c #e6eeee",
"fp c #5aa4c5",
"ga c #c5eeff",
"gb c #fff6ee",
"gc c #eef6f6",
"gd c #cde6de",
"ge c #31526a",
"gf c #9ce6ee",
"gg c #7bacac",
"gh c #6a7b73",
"gi c #5a7b7b",
"gj c #a4cdd5",
"gk c #52737b",
"gl c #def6ff",
"gm c #5aacf6",
"gn c #839ca4",
"go c #9cdeff",
"gp c #7baca4",
"ha c #103973",
"hb c #c5cdd5",
"hc c #b4d5d5",
"hd c #3194f6",
"he c #6a9cb4",
"hf c #eef6ee",
"hg c #5a8b83",
"hh c #397b73",
"hi c #7bbdc5",
"hj c #b4ded5",
"hk c #4a8383",
"hl c #206ab4",
"hm c #8ba4b4",
"hn c #ffffee",
"ho c #7b949c",
"hp c #d5d5d5",
"ia c #314a6a",
"ib c #9cdeee",
"ic c #319cff",
"id c #8bb4b4",
"ie c #73b4b4",
"if c #83bdbd",
"ig c #4a626a",
"ih c #39a4f6",
"ii c #b4eeff",
"ij c #003973",
"ik c #526273",
"il c #83bdf6",
"im c #8bd5ff",
"in c #629494",
"io c #deeeee",
"ip c #c5eeee",
"ja c #e6eede",
"jb c #bdeeff",
"jc c #94cde6",
"jd c #d5eeee",
"je c #bdbdbd",
"jf c #b4e6f6",
"jg c #cdd5d5",
"jh c #73b4ac",
"ji c #9cacb4",
"jj c #94d5de",
"jk c #628b83",
"jl c #9cc5c5",
"jm c #a4cdff",
"jn c #4183bd",
"jo c #73a49c",
"jp c #d5dee6",
"ka c #8b9cac",
"kb c #738b9c",
"kc c #cdcdcd",
"kd c #739c9c",
"ke c #83cdee",
"kf c #416a6a",
"kg c #f6fff6",
"kh c #cdeeff",
"ki c #184a8b",
"kj c #5a8394",
"kk c #627b8b",
"kl c #c5e6ee",
"km c #9cb4bd",
"kn c #b4e6ff",
"ko c #52a4f6",
"kp c #4a7b94",
"la c #acbdd5",
"lb c #acdeee",
"lc c #e6eef6",
"ld c #94acac",
"le c #2994ee",
"lf c #6a8ba4",
"lg c #4a737b",
"lh c #8bc5c5",
"li c #949ca4",
"lj c #629cbd",
"lk c #73b4ee",
"ll c #c5d5d5",
"lm c #deffff",
"ln c #dedede",
"lo c #deded5",
"lp c #a4d5ee",
"ma c #20395a",
"mb c #f6f6f6",
"mc c #737b83",
"md c #acdeff",
"me c #eefff6",
"mf c #cdffff",
"mg c #bde6ff",
"mh c #6aacde",
"mi c #8bb4cd",
"mj c #f6f6ee",
"mk c #dedee6",
"ml c #d5f6ff",
"mm c #529ce6",
"mn c #a4d5ff",
"mo c #8bacc5",
"mp c #eeeeee",
"na c #e6e6e6",
"nb c #e6e6ee",
"nc c #396a94",
"nd c #9cc5e6",
"ne c #ace6ff",
"nf c #e6e6de",
"ng c #f6f6ff",
"nh c #e6dee6",
"ni c #4a8b8b",
"nj c #a4deff",
"nk c #eeeede",
"nl c #f6eee6",
"nm c #6aa4de",
"nn c #83acb4",
"no c #eeffff",
"np c #6294ac",
"oa c #eeeef6",
"ob c #cdf6ff",
"oc c #9cd5ff",
"od c #9ccdee",
"oe c #5a8bb4",
"of c #5ab4f6",
"og c #39526a",
"oh c #94c5f6",
"oi c #dee6ee",
"oj c #e6ffff",
"ok c #9ccdff",
"ol c #b4deff",
"om c #cde6ee",
"on c #eef6ff",
"oo c #94cdff",
"op c #739cb4",
"pa c #4194de",
"pb c #d5d5de",
"pc c #acacac",
"pd c #acd5ff",
"pe c #e6f6f6",
"pf c #5a7383",
"pg c #7bc5ff",
"ph c #b4cdcd",
"pi c #eee6e6",
"pj c #8b9494",
"pk c #b4f6ff",
"pl c #c5c5c5",
"pm c #fffff6",
"pn c #f6ffff",
"po c #fff6ff",
"pp c #ffffff",
"pppppppppppppppppppppppppppppppppppppppppppppppppppppppppppppppppppppppppppppppppppppppppppppppppppppppppppppppppppppppp",
"pppppppppppppppppppppppppppppppppppppppppppppppppppppppppppppppppppppppppppppppppppppppppppppppppppppppppppppppppppppppp",
"ppppppppppppppppppppppppppppppppppppppppppppppppppppppppppppppppppppppppppppppppppppppmbppmbpppppppppppppppppppppppppppp",
"ppppppppppppppppppppppppppppppppppppppppppppppppppppppppppppppppppppppppppppppmbmplnlnhphppppppppppppppppppppppppppppppp",
"ppppppppppppppppppppppppppppppppppppppppppppppppppppppppppppppppppppppmpnalnlnhpnampmbpphpnapppppppppppppppppppppppppppp",
"ppppppppppppppppppppppppppppppppppppppppppppppppppppppppppppmpmpnahphplnnampmbppppppmbppmphpppmbpppppppppppppppppppppppp",
"ppppppppppppppppppppppppppppppppppppppppppppppppppmbmpnalnhplnnampmbppppppckmbnanalnhpmbppkcpppppppppppppppppppppppppppp",
"ppppppppppppppppppppppppppppppppppppppppppmbmpdlpblolnnamjppppkgppckmpnbnalnlnlnlnlnlnmppplnmppppppppppppppppppppppppppp",
"ppppppppppppppppppppppppppppppppmbmpnalnelpbnfmpmbpppppppnkcbhfifihboilnlnmklnnhlnlnlnnappmplnpppppppppppppppppppppppppp",
"pppppppppppppppppppppppppppppplnhplnnambppppppppmbmpoalllikmlconlckahbnbconamknfnhdlnhlnmbppkcpppppppppppppppppppppppppp",
"ppppppppppppppppppppppppppppmbplmbppppponlnknamknbjpjilioipppppnppgccljpnbconalnnfmknfcomppphpmppppppppppppppppppppppppp",
"ppppppppppppppppppppppppppppppplmpppmpdlnamknbfodplihbpppppppnppngppjpholcmkconanfnananhnappmplnppppmbpppppppppppppppppp",
"pppppppppppppppppppppppppppppphphpppmplnnbpehbakffonpnnopnkgngkgpnkgppfjfipeconananhnanfnambppkcckpppppppppppppppppppppp",
"ppppppppppppppppppppppppppppppnfplppmbmbjphmbaiopnnopenononononononoojpnldffonnhnananananamppplnnapppnpppppppppppppppppp",
"pppppppppppppppppppppppppppmpmnkjepppnaiakllppnonononopnpnnonomenononoglmfoplloapinanananampppmphppppppppppppppppppppppp",
"pppppppppppppppppppppppppppponpphbbelieenopnojnononononononomeojmeojojmlmfcdhmfonknafonknbfombppjgckpppppppppppppppppppp",
"pppppppppppppppppppppmpppmpppncoaneijdnolmonojmeonojnonoojmeojojojojeocpcpmfkmmkmpfopinbmppimbpplnnapppnpppppppppppppppp",
"pppppppppppppppppmkgpppnppmbaiakjppnnoojojojojojojojojojojojmeojojmfkhcppkiibjfonknbmpmpfopimpppmphppppppppppppppppppppp",
"ppppppppppppppppppngpppnbeakplpnojglojojojojojojojojojeolmojpelmlmcpipcpdcjjkmngfompmpnkmpfomppppphpmbpppppppppppppppppp",
"pppppppppppppppnppppjpbaffonnokhomklgllmeoeoeogleogleolmmllmgllmipjbjbiiiijfkaoanlmpmpoampmpmpmbpplnmppppppppppppppppppp",
"ppppppppppppppppnbbhbhiopnkhalmgmgmgobmlmlmlglmlmleomlmlglmlmlkhjbiidbjbiicpaefipnoampmpoambmpnlppmphppppppppppppppppppp",
"pppppppppoppmjjeebjppnmlcnolololmgmgjdmfmfmlkhmlmlobmljdmlmljbknkniimgiiiijfcpmikmppmpmboaoahfhfngppkcpppppppppppppppppp",
"pppppppppplljilllmmlmgbgolololololfjeefjllobkhkhkhjdkhkhkhmgjfknknjfknjfkniikngagnhbpnnlcknlmboambpplnnappmbpppppppppppp",
"pppmppkgfilaeomfdbpdbgknlppdpdmdjmmohbhbldcnkhomkhklobgaknknneneknknknknneneneneknhoedngnlnlckgcmbppmphppppppppppppppppp",
"ppppppngigipmglpjmpdjmmimomopdmdmifjpppphbndomkhmiafeemgknmdmdnemdololmdnemdnemdnemnopngcknlnggcmbpopmkcmbpppppppppppppp",
"pppppmppmcncpdokjmndmofhedfjhmolmojgppppllciglkmeejdcinnlbmdmdmdmdmdlbmdmdmdmdmdnjknfneippngmbpombkgpplnnapppppppppppppp",
"pppppmppedgeljmnokeeopbbgdioeegngniopppnioeimoffjdalgdgnjmollbmdmdmdmdmdmdmdpdmdmdnjknfleeppmbckmbmbppnlpbpppppppppppppp",
"pppppnpppplaiabioopgabphededjdlljdonnoononiolljdomgdphlfbglbmdmnmnpdnjmnmnpdnjpdmnnjnjmdnpllppmbckngpppnhpmbpppppppppppp",
"ppppkgpppopoanfcocoonpfldgaljdiopeonpnpngcpeiojdbbkhaonnolpdjclpnjmnmnmnnjmnmnmnmnlpmnnjpdhooippckpnpppplnnapppppppppppp",
"pppppppmngppfhdmopdahechklkldloaoilldedehbedioedalgdbjflaeacfmacbgmnmnmnocmnmnocmnmnmnocmnndhoonppngckppmphppppppppppppp",
"pppppnckppedchhcgjamamalhjklalakfefcfcfcfcpfkaalklcnalamamaedjfmmipdocjmocjmocmnoklpjmocoknjmoflppngpppmppjgmbpppppppppp",
"pppppnpmppjiidfbfbibhjllelfjncfcoenmnmkomhhmdfgifjdbefhjblgjjlciopjmokokokocodokokjmodokoookmnopeeppmbpmppjpcopppppppppp",
"pppppppnpppcbpfbfbefgjhjfhfccbgmcgofdigmpaohokopfeeecngjfbgjjlenabokokodokokokokokodokoookoookmnnphbpppopmmpjgppppmbpppp",
"pppnppckcknapjjkjlfbefdjkpkpgmkodiihdibkhlmhocjmfldfdjgjfbjlkjeafnokokoookokoookokokokokoookokokooablcpppmpnhpmbpppppppp",
"pppppppmpppppplikdgjefecnpdnfdahfdihbkboehkookokjmlfecblfbchkjndpdoooookokokokokoojmokokodokokokokepkbpengpplnnapppmpppp",
"ppppppppmjjpkceibjfbefajncgobkhdfdfdhdehehpaocokokepkjgjlhifnpmomiohokokoookoookokooohokokoookoookjmmijingppnkpbppngpppp",
"ppppppmbclhoeknniflhldanogacpghdhdfdbobobocbpgjmokjmlfifjlifamfmnplfohokokoookoookoookoooooooooondmgomkafopppphpmbpppppp",
"pnppppnlbpggieieiflhchdplamaimmhhdfdbobohdbobfokokjmopchifamhijhaodmmiocokoookokoookokokohokndlpkhhckmgcmpkcccebnlpppppp",
"pppmppoadmchjhamieifgnjeppkkncocmmhdlehdhdbomhocohmnopnnifjhgpgpchdmdaokokoookoookodokokjmndmgipmohmailipjpjpckcpppppppp",
"ppppppmbandkdohoggiejoffpmnagenpoohdhdhdhdhdmmoooojmopggamgpkdjkgkgkepokokokooodokooooohohknepfciaiamcjenhgbpppppppppppp",
"ppppppkgkcfipjmckdjhamcamjppfjddpgfkbobkfdfdmmbiokoknpnnjhecgkpfkjopokokokokooohbibfdnkeibnpkiijiabhoapppmppppppckpppnpp",
"pppppmpppmckppffdmgggphodhpppnangeockohdbkbkihbdpdflheggchinkbjmjmmnokohbfbdfkdngmlkjmkencijkikkkcpppppppppppppppppppppp",
"pppmpppombppdhdmekekemfmanfopppiogoeocbkahbkbkbdohlffmembmapkjfleplkdngmdngmmhmhkegonmkikigejioapppppopppppppppppppppppp",
"ppppppppppfjdkinbmbmememhohompppplmadapgihmmkonmoeopkdemeginnpkppadnofdnfklklknjbijnkihapfkcpopppppppnpppppppppppppppppp",
"pppmpppnppbhdkjkfafaegekeminbpbengligeocdnmmmmkjheekekapindodmhkhklkfkdnmhohnemhhlhageldoappppngpppppppppppppppppppppppp",
"pppppppmppjpdkgigigkgkjkinekbmenhognfcdfnmkjabekbminenlgfedfkjejljbflkilnjohjnkikipfplpnpppopppnpppppppppppppppppppppppp",
"pppmppppppppbhfemcebbagijkfafaeginenhoabenbmlfenfafaagfekpfcfcgkdalkohmdlknckiiaaopipppopppppppppppppppppppppppppppppppp",
"pppppppoppppoaplpipplndkhknikjhgcjcjcjfahgcjdmkjnihkgiljbfnmabnmepgfoommfchalgbepopppnppkghnpopppppppppppppppppppppppppp",
"ppppppppppppppppppppbhfehkadgigkgkhkhkhkdfdfcehkhkkpagoepgilepokmddajnhakikanbpppppppppppppppppppppppppppppppppppppppppp",
"ppppppppppppppckpppodmikeaeafecldmaghkeagimagebnbngkfegkdaepnjocljhlddfeplngpppppmpppppppppppppppppppppppppppppppppppppp",
"ppppppppppppppppckpppcikigigfimjfjajhhhhbnghiapfigajajkkjmmdiljnkiiapjnbpppppppmpmpppppppppppppppppppppppppppppppppppppp",
"pppppppppppppppppnppmjplmccanlpmlnigkfejfelomciadmncnpndooacnckiikfjpopppppopppnpnpppppppppppppppppppppppppppppppppppppp",
"pppppppppppppppppppppppmnknkpmpmmpmcfeigghmjoiiadfokoolkoegeddpjmkpopppnpppnpppnpnpppppppppppppppppppppppppppppppppppppp",
"ppppppppppppppppppppppppppppmbppckeldpjehppmppfjkiflnmkpkifcjemjpppppnpppppnpppppppppppppppppppppppppppppppppppppppppppp",
"pppppppppppppppppppppnpmpopppnpmpppmpmpmpmckpmppanhafcmaanmkpppppokgppppppppppppckpppppppppppppppppppppppppppppppppppppp",
"ppppppppppppppppppppppppppppppppppppppppppppppppoipfikccngpppppppppppppppppppppppppppppppppppppppppppppppppppppppppppppp",
"pppppppppppppppppppppppppppppppppppppppppppmppppppnbjppppppnpppppppppppppppppppppppppppppppppppppppppppppppppppppppppppp",
"pppppppppppppppppppppppppppppppppppppppppppppppppnpmpppppppppopppppppppppppppppppppppppppppppppppppppppppppppppppppppppp",
"ppppppppppppppppppppppppppppppppppppppppppppppppppckpppmpppppppppppppppppppppppppppppppppppppppppppppppppppppppppppppppp",
"pppppppppppppppppppppppppppppppppppppppppppppppppppppmpppppppppppppppppppppppppppppppppppppppppppppppppppppppppppppppppp"
};
