/* XPM */
static char * ft_folder[] = {
"32 32 256 2",
"aa c #83b4de",
"ab c #6a9c9c",
"ac c #527b8b",
"ad c #39a4ff",
"ae c #738383",
"af c #a4cdcd",
"ag c #cddede",
"ah c #73aca4",
"ai c #8ba4a4",
"aj c #73a4a4",
"ak c #316294",
"al c #8bbde6",
"am c #6a8b9c",
"an c #6aacde",
"ao c #83bdbd",
"ap c #73b4ee",
"ba c #184a8b",
"bb c #c5e6e6",
"bc c #8bacc5",
"bd c #a4bdbd",
"be c #41626a",
"bf c #5a738b",
"bg c #6aa4ac",
"bh c #31527b",
"bi c #52737b",
"bj c #4a7394",
"bk c #b4cdd5",
"bl c #528b83",
"bm c #94bdde",
"bn c #4aa4f6",
"bo c #9ca4a4",
"bp c #62839c",
"ca c #20527b",
"cb c #def6f6",
"cc c #73949c",
"cd c #94c5e6",
"ce c #acd5f6",
"cf c #7bbdff",
"cg c #acd5ff",
"ch c #94c5f6",
"ci c #6ab4f6",
"cj c #c5ded5",
"ck c #4a6a83",
"cl c #a4c5c5",
"cm c #4173a4",
"cn c #7b949c",
"co c #52b4ff",
"cp c #c5eef6",
"da c #def6ff",
"db c #295283",
"dc c #528383",
"dd c #4a8383",
"de c #7bb4de",
"df c #c5f6ff",
"dg c #6a9c94",
"dh c #bde6f6",
"di c #d5e6e6",
"dj c #6283a4",
"dk c #8bcdee",
"dl c #739cac",
"dm c #b4bdbd",
"dn c #6a838b",
"do c #9ca4ac",
"dp c #cdd5de",
"ea c #4aa4ff",
"eb c #94bdee",
"ec c #8bbdde",
"ed c #6a8b94",
"ee c #8bacbd",
"ef c #94bdbd",
"eg c #acb4b4",
"eh c #5a7373",
"ei c #8bbdbd",
"ej c #6aa4a4",
"ek c #528b8b",
"el c #3994ee",
"em c #627b7b",
"en c #bdc5c5",
"eo c #bdc5cd",
"ep c #73bdff",
"fa c #b4cde6",
"fb c #627b8b",
"fc c #62b4ff",
"fd c #b4deff",
"fe c #399cff",
"ff c #7ba4b4",
"fg c #207bde",
"fh c #7baccd",
"fi c #5aacf6",
"fj c #4a73a4",
"fk c #52837b",
"fl c #acdede",
"fm c #2083e6",
"fn c #b4c5cd",
"fo c #5a8b83",
"fp c #527383",
"ga c #315a5a",
"gb c #62a4cd",
"gc c #83cdff",
"gd c #739c9c",
"ge c #b4bdb4",
"gf c #8bbdc5",
"gg c #3194f6",
"gh c #5a7394",
"gi c #94bdd5",
"gj c #8bbdd5",
"gk c #94a4a4",
"gl c #5a8ba4",
"gm c #7b9c9c",
"gn c #b4b4b4",
"go c #eef6ee",
"gp c #bddede",
"ha c #416273",
"hb c #9ccdcd",
"hc c #7ba4ac",
"hd c #a4bdcd",
"he c #417b7b",
"hf c #9cbdc5",
"hg c #8bacd5",
"hh c #73ace6",
"hi c #d5dede",
"hj c #c5e6ff",
"hk c #294a73",
"hl c #73b4f6",
"hm c #b4f6ff",
"hn c #c5cdcd",
"ho c #b4c5c5",
"hp c #c5d5d5",
"ia c #629494",
"ib c #b4eeff",
"ic c #7b9cac",
"id c #83c5ee",
"ie c #a4b4b4",
"if c #5a8bbd",
"ig c #6aacee",
"ih c #6a8ba4",
"ii c #4a7b73",
"ij c #94a4ac",
"ik c #8bbdee",
"il c #b4e6ff",
"im c #cdd5d5",
"in c #bdcdcd",
"io c #9cbde6",
"ip c #94cdf6",
"ja c #62a4de",
"jb c #316aac",
"jc c #629c94",
"jd c #73a4ac",
"je c #8ba4b4",
"jf c #7bacac",
"jg c #5aa4ee",
"jh c #cddee6",
"ji c #dee6e6",
"jj c #5a7b9c",
"jk c #5a9494",
"jl c #c5d5de",
"jm c #62948b",
"jn c #3194ff",
"jo c #cdd5e6",
"jp c #acc5cd",
"ka c #9cd5f6",
"kb c #7bb4b4",
"kc c #dee6de",
"kd c #a4cdee",
"ke c #9cacbd",
"kf c #cdcdcd",
"kg c #acc5c5",
"kh c #8bc5bd",
"ki c #738394",
"kj c #41a4f6",
"kk c #b4bdc5",
"kl c #a4d5f6",
"km c #dedede",
"kn c #739cb4",
"ko c #2994f6",
"kp c #acbdc5",
"la c #deded5",
"lb c #8bcdff",
"lc c #6aaca4",
"ld c #415a5a",
"le c #628b8b",
"lf c #d5e6ee",
"lg c #bde6ff",
"lh c #dedee6",
"li c #527b9c",
"lj c #5a948b",
"lk c #a4d5ff",
"ll c #b4c5d5",
"lm c #6a9cb4",
"ln c #dee6ee",
"lo c #8bc5ff",
"lp c #c5cdd5",
"ma c #cdf6ff",
"mb c #83b4ee",
"mc c #4a83b4",
"md c #deffff",
"me c #94b4c5",
"mf c #acdeee",
"mg c #eeffff",
"mh c #52839c",
"mi c #205a8b",
"mj c #ace6ff",
"mk c #4a7b83",
"ml c #e6f6f6",
"mm c #cdeef6",
"mn c #e6e6e6",
"mo c #d5dee6",
"mp c #9cd5ff",
"na c #5ab4ff",
"nb c #acdeff",
"nc c #83acd5",
"nd c #7394bd",
"ne c #8bb4de",
"nf c #e6e6ee",
"ng c #94c5c5",
"nh c #acc5d5",
"ni c #397bac",
"nj c #a4deff",
"nk c #a4c5d5",
"nl c #d5d5d5",
"nm c #7ba4c5",
"nn c #9ccde6",
"no c #4a9ce6",
"np c #d5f6ff",
"oa c #f6f6f6",
"ob c #6294ac",
"oc c #f6f6ee",
"od c #9ccdff",
"oe c #526a94",
"of c #eeeeee",
"og c #bddeee",
"oh c #eeeef6",
"oi c #c5dede",
"oj c #eef6f6",
"ok c #6ab4ff",
"ol c #94cdff",
"om c #9cc5f6",
"on c #f6f6ff",
"oo c #bdd5de",
"op c #e6eeee",
"pa c #5294bd",
"pb c #acb4c5",
"pc c #d5eeee",
"pd c #e6ffff",
"pe c #6a7b8b",
"pf c #bdcdd5",
"pg c #83bdf6",
"ph c #e6dede",
"pi c #8b9c9c",
"pj c #bdeeff",
"pk c #c5c5cd",
"pl c #fffff6",
"pm c #fff6f6",
"pn c #f6ffff",
"po c #f6eeee",
"pp c #ffffff",
"pppppppppppppppppppppppppppppppppppppppppppppppppppppppppppppppp",
"ppppppppppppppppppppppppppppppppppppppppppppoaoapppppppppppppppp",
"ppppppppppppppppppppppppppppppppppppoaofopmnofphoapppppppppppppp",
"ppppppppppppppppppppppppppoaofofofofofofpoofofojmnpppppppppppppp",
"ppppppppppppppppppoaofopmnofoajiimimnfmnkmkmkmoamnpppppppppppppp",
"ppppppppppppppppkmofofpooanfeolpohmokknfjiphkmoaofoapppppppppppp",
"ppppppppppppppppnlppofjienhooppppnpphppfofkcphoppoofpppppppppppp",
"ppppppppppppppppphoaimkpdipnmgmgmgmgpnnkimofmnmnoamnpppppppppppp",
"ppppppppppppppppagpboomgpnpdmgmgmgmgmddffnofmnmnoaopoapppppppppp",
"ppppppppppppoakfinopmgpdpdpdpdpdpdmdcphmafpoofofofoamnpppppppppp",
"pppppppppphiinjhnpmamdcbcbdacbmdcbcppjibkppoofofofpmmnpppppppppp",
"ppppppophnjomahjfdogmmmanpnpnppcpjibildfklfnoaohgopmopoapppppppp",
"pppplpoocplgkdkdnbkpinoommogcpilmjilfdmjibnnhppmpoongomnpppppppp",
"ppppgkeccgebkgnknejoppnhfajpnknbnbnbmfnbmfmjgijippoappmnpppppppp",
"ppppopfjipfhhpdijpmlppjlbkpcmecenbnblknbcgnbnjneofpmppmnoapppppp",
"pppnppdmlmfhhfcbofaglpopcbcjeecdnekllklkmplklknnhdpppnoamnpppppp",
"ppppoabdhbngcjnkbpmcmcamjecjafngefneklodmpkdodlkiknhpppmjipppppp",
"pppppmgkeiflbdninocobnhhncicflafccncmpododododollkaajlppmnoapppp",
"ppppppphpihblefifekjfgnonbnmmeeigdodododolododododolhgdipmoppppp",
"pnppkphcaoefpegbeajnfmellkcdffkhjfdlebipodolcholchnboglpofnlpppp",
"ppppgkjmkbjfkmkiigggggelloomffkbahdnaampododododfdeecngegnkmpppp",
"ppppimbocnejhnjilifcggelcfomajajdnndodiplopglodkjbhkgnoapppppppp",
"ppplppkmcclcgmoapbifnafeoknmajdgknloepigcigcgbbafbofpppppppppppp",
"pppppndnbljkabgmkmkianjgobdgdgledcpafccfipnidbgnpppppppppppppppp",
"ppplppegehpidnjkjmedbpljialjlibjckhhmpdecafbmnppppplpppppppppppp",
"pppppppmoakmiiddacblfoacdcmkglapmbmpmcdbieppppplpppppppppppppppp",
"pppppppppppkldemkeiiiildhackbilkidakbflnpppppppppppppppppppppppp",
"ppppppppppppdmkfplemgaenghihpgobbhdopppppnpnpppppppppppppppppppp",
"ppppppppppppppppplkchnpphncmcmoelappppppplpppppppppppppppppppppp",
"ppppppppppppplppppppppplpppiboplpppppppppppppppppppppppppppppppp",
"pppppppppppppppppppppppppppppppppppppppppppppppppppppppppppppppp",
"pppppppppppppppppppppppppppppmpppppppppppppppppppppppppppppppppp"
};
