/* XPM */
static char * ft_image_big[] = {
"60 60 256 2",
"aa c #d5dea4",
"ab c #105ab4",
"ac c #52b4f6",
"ad c #ac8362",
"ae c #627383",
"af c #b4b48b",
"ag c #f6ff8b",
"ah c #acd5f6",
"ai c #7b9cac",
"aj c #62b4f6",
"ak c #8bbde6",
"al c #bdc5bd",
"am c #e6eeee",
"an c #94c5ee",
"ao c #f6eeac",
"ap c #d5e6e6",
"ba c #a4def6",
"bb c #73acf6",
"bc c #d5dede",
"bd c #ffde62",
"be c #e6b45a",
"bf c #52acff",
"bg c #08396a",
"bh c #eeee94",
"bi c #73bdff",
"bj c #ffb441",
"bk c #ffcd41",
"bl c #ee9429",
"bm c #949cac",
"bn c #73cdf6",
"bo c #ffc55a",
"bp c #629cb4",
"ca c #d5e6de",
"cb c #4a6283",
"cc c #f6ffbd",
"cd c #e68341",
"ce c #94acbd",
"cf c #527ba4",
"cg c #ffffbd",
"ch c #acb4bd",
"ci c #ffbd52",
"cj c #397b9c",
"ck c #a4b4bd",
"cl c #b4947b",
"cm c #52738b",
"cn c #83acc5",
"co c #acd5de",
"cp c #94d5f6",
"da c #fff6ee",
"db c #ffa431",
"dc c #def6ff",
"dd c #ffe673",
"de c #9ccdde",
"df c #b4bd94",
"dg c #8bcdf6",
"dh c #a4cde6",
"di c #ffd56a",
"dj c #204162",
"dk c #e6eef6",
"dl c #cdeef6",
"dm c #29a4f6",
"dn c #ffee7b",
"do c #f6d56a",
"dp c #083173",
"ea c #aceeff",
"eb c #c5f6f6",
"ec c #accdf6",
"ed c #eeb441",
"ee c #94d5ee",
"ef c #94c5e6",
"eg c #94a4a4",
"eh c #b4dec5",
"ei c #5273b4",
"ej c #ee9441",
"ek c #94bdbd",
"el c #eef67b",
"em c #946a5a",
"en c #83acac",
"eo c #39acf6",
"ep c #ffde73",
"fa c #a4acbd",
"fb c #ffbd5a",
"fc c #94d5ff",
"fd c #bdc5c5",
"fe c #ffffa4",
"ff c #7b8b94",
"fg c #dee6e6",
"fh c #9cbdb4",
"fi c #ffff8b",
"fj c #ffcd62",
"fk c #ff9c39",
"fl c #83bdf6",
"fm c #b46a41",
"fn c #6ab4f6",
"fo c #a46a39",
"fp c #205283",
"ga c #d57b31",
"gb c #c5cdc5",
"gc c #d5eeee",
"gd c #7b9cbd",
"ge c #73accd",
"gf c #c5d5de",
"gg c #bdeeff",
"gh c #94bde6",
"gi c #f6ee9c",
"gj c #39627b",
"gk c #ffb44a",
"gl c #318be6",
"gm c #7b6a52",
"gn c #73bdee",
"go c #6a94bd",
"gp c #acd5ff",
"ha c #c5e6f6",
"hb c #eef6f6",
"hc c #ffcd6a",
"hd c #18396a",
"he c #f6b452",
"hf c #83bdcd",
"hg c #ffff7b",
"hh c #b4deff",
"hi c #8b9ca4",
"hj c #41526a",
"hk c #f6ffac",
"hl c #c5f6ff",
"hm c #62acee",
"hn c #ace6ee",
"ho c #e6eecd",
"hp c #d5d5d5",
"ia c #ffff9c",
"ib c #c5b494",
"ic c #ff9c29",
"id c #b4c5c5",
"ie c #eef6ee",
"if c #83ace6",
"ig c #8b7b73",
"ih c #d5eeff",
"ii c #7bbdff",
"ij c #ded5d5",
"ik c #cdffff",
"il c #ffac41",
"im c #ffbd6a",
"in c #627b83",
"io c #a4e6f6",
"ip c #d59452",
"ja c #a4b4d5",
"jb c #f6ac4a",
"jc c #6a8bac",
"jd c #ffde7b",
"je c #ffffb4",
"jf c #c5eeff",
"jg c #f6ee8b",
"jh c #949c8b",
"ji c #a4b4a4",
"jj c #b4eeff",
"jk c #a4c5ee",
"jl c #bd834a",
"jm c #084183",
"jn c #83c5ff",
"jo c #ff9c41",
"jp c #52bdff",
"ka c #ffd562",
"kb c #d5bda4",
"kc c #d5f6ff",
"kd c #ffe662",
"ke c #d5dee6",
"kf c #295a9c",
"kg c #e6de94",
"kh c #94acac",
"ki c #397bbd",
"kj c #ff9429",
"kk c #acac9c",
"kl c #73b4f6",
"km c #ffff94",
"kn c #9c6a4a",
"ko c #fff67b",
"kp c #b4e6ff",
"la c #ffac4a",
"lb c #419cee",
"lc c #f6f6f6",
"ld c #7ba4b4",
"le c #d5cd94",
"lf c #9cd5ee",
"lg c #cdeeff",
"lh c #94cdf6",
"li c #9cd5ff",
"lj c #94bdd5",
"lk c #ffc552",
"ll c #f6f6ee",
"lm c #e6f6f6",
"ln c #bdbdbd",
"lo c #dedede",
"lp c #a4d5f6",
"ma c #dedee6",
"mb c #ded5e6",
"mc c #ffffe6",
"md c #ee9c41",
"me c #94cdff",
"mf c #acdeff",
"mg c #c5d5c5",
"mh c #deffff",
"mi c #e6e6e6",
"mj c #e6e6de",
"mk c #f6f6ff",
"ml c #ace6ff",
"mm c #314162",
"mn c #e6e6ee",
"mo c #ffd573",
"mp c #a4cdff",
"na c #8bdeff",
"nb c #62bdf6",
"nc c #f6eeee",
"nd c #eeeeee",
"ne c #527bbd",
"nf c #dee6ee",
"ng c #948b8b",
"nh c #94accd",
"ni c #a4d5ff",
"nj c #a4deff",
"nk c #c5bd8b",
"nl c #ee8329",
"nm c #f6bd41",
"nn c #bde6ff",
"no c #eeffff",
"np c #eeeef6",
"oa c #ffffac",
"ob c #cdf6ff",
"oc c #acdef6",
"od c #eeffee",
"oe c #deded5",
"of c #e6dede",
"og c #9ccdf6",
"oh c #526283",
"oi c #73c5f6",
"oj c #eef6ff",
"ok c #9c9ca4",
"ol c #d5e6ee",
"om c #e6ffff",
"on c #c5c5bd",
"oo c #9ccdff",
"op c #bddeff",
"pa c #eeeede",
"pb c #94deff",
"pc c #b4cdd5",
"pd c #ffe68b",
"pe c #e6f6ff",
"pf c #629cd5",
"pg c #9cc5f6",
"ph c #9cdef6",
"pi c #eee6e6",
"pj c #ffa439",
"pk c #bdf6ff",
"pl c #ffc562",
"pm c #fffff6",
"pn c #f6ffff",
"po c #fff6f6",
"pp c #ffffff",
"pppppppppppppppppppppppppppppppppppppppppppppppppppppppppppppppppppppppppppppppppppppppppppppppppppppppppppppppppppppppp",
"pppppppppppppppppppppppppppppppppppppppppppppppppppppppppppppppppppppppppppppppppppppppppppppppppppppppppppppppppppppppp",
"pppppppppppppppppppppppppppppppppppppppppppppppppppppppppppppppppppppppppppppppppppppppppppppppppppppppppppppppppppppppp",
"ppppppppppppppppppppppppppppppppppppppppppppppppppppppppppppppppppppppppppppppppppppndmilolcpplcpppppppppppppppppppppppp",
"pppppppppppppppppppppppppppppppppppppppppppppppppppppppppppppppppppppppppplcndlolohplondlolopppppppppppppppppppppppppppp",
"pppppppppppppppppppppppppppppppppppppppppppppppppppppppppppppppplcndmilohphplondlcpppppplcgbpppppppppppppppppppppppppppp",
"pppppppppppppppppppppppppppppppppppppppppppppppppppppppplcmilohplolomilcpppppppplcndlondppmbpapppppppppppppppppppppppppp",
"pppppppppppppppppppppppppppppppppppppppppppppppnpamilohpoeoflcpppppppmlcncammilolomboemippmilopppppppppppppppppppppppppp",
"ppppppppppppppppppppppppppppppppppppppndndmabcoeloamllmkppppfgfdlnkemilololololooffglololcppgbpppppppppppppppppppppppppp",
"pppppppppppppppppppppppppppppplclolohplomindpopppppplcpnapegfagfgfegfdamlolomilooflololondpplonppppppppppppppppppppppppp",
"pppppppppppppppppppppppppppppplohplcpppppppplcndmnmnmifahigfppppppojhihpnffgfgofmimimifgpipppilopppppppppppppppppppppppp",
"pppppppppppppppppppppppppppppphphppplcndmimamamndklnhilnpppplcpnpnppfgffamapmimifgmjofmifglcpphpmkpmmkpppppppppppppppppp",
"ppppppppppppppppppppppppppppppndlnpppplomjmihbgfbmfadkpplchbpnpnpnpnpnmghihbfgmjmimifgmiofhbpphpndpppppppppppppppppppppp",
"pppppppppppppppppppppppppppppplclnpnpmmnndfgegbmbcpnnoomnononopnnonoojpnckckammimjmimimimipippndhppppppppppppppppppppppp",
"pppppppppppppppppppppppppppnpnpmonofppmkfhbmfdpnpnnoodpnpnnononononopnommhldpcdkofpimimimimipplchppplcpppppppppppppppppp",
"pppppppppppppppppppppppppppppnpphpmafghichpeppomnononononononononoodnodcobebhifgncmnampiammilcpphpndpppppppppppppppppppp",
"pppppppppppppppppppppppppmpmlcppkeffegolpnnolmnoomodomomomomodomnoomomkcebikcolniemipiampiamndppndhppppppppppppppppppppp",
"pppppppppppppppppppppppnpoppppchhionpnomomomomomomomomommhomomnoomomkcobpkikefidiepindndampindmkpmhppppppppppppppppppppp",
"pppppppppppppppppppplcppppgbhichnonodcommhomomomomomomommhomomlmmhmhebggggobenbcndndamndndmindlcpphpndpppppppppppppppppp",
"ppppppppppppppppppppppfgegegdkpnihlgkcomdcmhdcmhdcmhdcmhdclmlmmhkcebggggpkggldapiendndndndndndncppndlopppppppppppppppppp",
"pppppppppppppppmpphbchegolpnihhahahalgdcdcdcdcdcdcdckcdcmhdcdckcjfjjggggjjjfcohinondncndnpndllndpppnhppopppppppppppppppp",
"pppppppppopoppppgbeggfnodchaopnnnnophakckckckckckckckckckckcobggggggkpjjggkpobljcepondndhbhbncnclcppijampppnpppppppppppp",
"ppppppppmkppkeceidojomopopophhophhhhkplglgkcdlkcdlkcgcdlobdlnnkpkpjjkpkpkpkpkpjfcnfdppndllnciehblcppndhppppopppppppppppp",
"pppppppphbckfhdkmhhaahahhhahhhococmfahhalglglgdllglglgjfjfnnkphnkphnkpkpkphnkpkpnnaioppnncllllhblcpplchplcpppppppppppppp",
"pppppmpphiegomggahniahgplpgpahnigpniahhhjfhagghajfnnhaggkphnkphnmlmlmlhhhnkpmlhnmlocaiamllllhbojnclcpphpampppppppppppppp",
"pppppoppkhgjmfoompnioonililimplioonioggpnnnnnnnnnnnnnnhhmfmfmfmfmfmfmfmlmfmfmfmfiomldehinolclclclclcppndijpppppppppppppp",
"pppppmpppegjnemfanoooooooooooooooomeogogkpkpkpkphhkpococmfhhmfmfmfmfnjmfmfgphhmfmfnikpcnnhpplcncpplcpppphppnpppppppppppp",
"pppmpppmppgbhjkllijnmedganandganmemelhlhbahhochhhhahgpmfgpnjgpmfgpmflpmfmfgpgpgpmfnjnjkpldidpppolclcpnpplomipmpppppppppp",
"pmpppmppppppokhjmedgoijnflghjnflflklflkllihhocbalplpahbanininjninininjnininjninjninininjnjgokepppolcpppppabcpppppppppppp",
"pppmpppppoppmkohcfnjgnjnbiklenekjkfhdffhnhjkecoclfphlininininininininininininininininiligpdhaidkpmpopnpmpohplcpppppppppp",
"pppppppppnpoppkemmgeoogeenaaelfefejecgjeelkgidfhmpgpmplinilililililililililililinimplpliligpifaippmkpopmppbcmipppppppppp",
"pppmpppppppppppnckmmcegbagkmoahkjecgaocgoafifiaachghahmpoooooomplioompoooompoooooolfoooofcogmfldcepplcpoppamhpppmkpmpppp",
"ppppppppppppppppnpnglehgdngihkhkcccccccchkkooakoelalfhmpmeogoooooooooooooooooooooopgoooomeoooonigopcpppppopngbpppppppppp",
"pppppppppppppppoonkdkodniakmpdkocgcccgcgaocckmdnkodfldoooooomepgmepgmeooanoomepgooooooooanooanoolijckepppmppkemipppppppp",
"pppppppmpmmkppleleddpddnbhffaeadncoancjehkhkhgkmafaeanooooogmemememeogooogmemememeoomeoooomeoooomeanjchbmkpppahppppopppp",
"pmpppnpndappndibkdddjdeljheimfeifakmoaaofekojeafaeghoooopgmemeoooopgoomeoooopgoooomeoomeoooooomemenicnaipnmkpphpmkpppppp",
"pppppmmcpnpplehcbdbdpdelgdbbmlbfcniakmcchkjedfinghmpoomememeooogpgjkoomemeoooopgjkoooooomeoomeoomeanjfjafhppppofampppppp",
"pppppppmppncibdodojdjdelopakioakcaiakoelkmafgjdecpmemelfoglhcplhlimelhoglhlhogfcmeoomeogmeogooanlplgpcfhnpppnpgbhppppppp",
"pppppopnppofbedidimomoddkoaphhkgoaelaofedffplbdglhogogogogooooogdgmeogooooooeemememeooanoolhlhkpdlfhidmblnegjhnghppppppp",
"pppppmpnpmkbbehchcdomojdjddngigipddniadffpgllbakjaafjaanoojkjkcefhfhmppgjkpgekckjaoooooomeogggefcfohaeigegkbmancpppppppp",
"pnpppopnppkbhefbhcdodomojdddbdbhjgpdafkfgldmlbaikgjeaaekdgpgjihojelecnlipgjielccnkakjnifmelpbpfpbghjgddkpppppppppppppppp",
"pppnpmmcppkkhefbplfjhcdodojdjdjdpddoohgldmdmglegdngiddkkdgefkkkdgikdkkpbcnibkoagkaaiiflfancjjmdpaegbpppppppppppppppppppp",
"pppnpnpoppibjbcifbplplhcdomojdkgmojdlebplblblbigbjplheadlhjajlcifjjbffklffipboplcdgdhhpfabdphjkhncpppppppppppppppppppppp",
"mcpppnpoppkbmdhegkfbplhchchcdikadomokdnkgobflbcmfogaemgolhjncmfojlgmneajhmohfmjlemldjcjmjmcfgbpopppppopppppppppppppppppp",
"mcpnpppopponipgkgkhefbfbplplplhchcfjhcdonkgobflbkiohcfachmhmpfkiohcfajnboipfaeigkikibgfpegpipppppopppppppppppppppppppppp",
"pmpnpppoppfgclillalagkhefbplimimfjlkimimbkibgoacajbfhmacajifajajhmklklklifnaanneabjmcjonncpppppnpppppppppppppppppppppppp",
"pmpppppopnodclfkpjlalagkhegkfbhecifbimfbnmcimdgdajbbhmjpkliffnnbiiklkljkopfncjfpmmhinfpopppmpopnpppppppppppppppppppppppp",
"pppnppmcodpnkbjlilpjpjjblalahebjgkhenmhehehelakkgdklfnklfnnbnbbiklflpbpbgokfjmcbonncpmpnodpnpppopppppppppppppppppppppppp",
"ppppppppppppmkadipdbfkpjpjlalailjblajblajblapjpjipegklbiflbibiklmehhgncjfpmmbmlopppppppppppppppppppppppppppppppppppppppp",
"pppppppppppoppmaigblkjkjpjpjjojojopjpjpjjojopjmdjoipgenbjnklghmflfpfgjjmcblnojpppmpppppppppppppppppppppppppppppppppppppp",
"pppppppppppppppnkbfoipejejkjmdjojojojomdjomdkjkjnlkngdjnoioohhjaneabdjhibcpnpppnpppppppppppppppppppppppppppppppppppppppp",
"pppppppppppppppnpponemadcdkjnlblblblejkjblblkjgaigneifghliligekihdcbidncpmpmpmpmpnpppppppppppppppppppppppppppppppppppppp",
"ppppppppppppppmcpmppkeclemfmgacdcdnlcdcdgafmfmmmhjfcdgmpifjcabdjffoemcpmpmpmpppnpppppppppppppppppppppppppppppppppppppppp",
"pppppppppppppppnpppopplmgbcligemknknknknigngibchfpgedgpfnejmcbdfiepmpopppnpppmpppppppppppppppppppppppppppppppppppppppppp",
"pppppppppppppppnpppopppmpnomnfgblnchlnonhpnpppppbmhdnegjfpffbcpmpppmpnpppopnpppppppppppppppppppppppppppppppppppppppppppp",
"ppppppppppppppppppppppppppppppppppppppppppppppppnpaehdhjkkncpppppopppppppppppppppppppppppppppppppppppppppppppppppppppppp",
"ppppppppppppppppppppppppppppppppppppppppppppppppppolkhkepppppnpppppmpppppppppppppppppppppppppppppppppppppppppppppppppppp",
"pppppppppppppppppppppppppppppppppopppppppppppmpmpopppnppppmkpppppppppppppppppppppppppppppppppppppppppppppppppppppppppppp",
"pppppppppppppppppppppppppppppppppppppppppppppopppppppopppppppppppppmpppppppppppppppppppppppppppppppppppppppppppppppppppp",
"pppppppppppppppppppppppppppppppppppppppppppppppopppppppppppppppppppnpppppppppppppppppppppppppppppppppppppppppppppppppppp"
};
