/* XPM */
static char * ft_image[] = {
"32 32 256 2",
"aa c #83b4cd",
"ab c #cdffff",
"ac c #839cbd",
"ad c #cdd5de",
"ae c #73a4d5",
"af c #bdcd9c",
"ag c #4a7b9c",
"ah c #e6c58b",
"ai c #8bbdee",
"aj c #ffee83",
"ak c #ffc541",
"al c #cde6cd",
"am c #b47b52",
"an c #94bdd5",
"ao c #ffff83",
"ap c #eecd73",
"ba c #4194de",
"bb c #526a83",
"bc c #e6ee94",
"bd c #62b4ff",
"be c #204a73",
"bf c #c5bdbd",
"bg c #aca4a4",
"bh c #6a8bb4",
"bi c #838b83",
"bj c #62bdff",
"bk c #deac6a",
"bl c #accdbd",
"bm c #6a6a7b",
"bn c #eeee9c",
"bo c #de7b29",
"bp c #acb4b4",
"ca c #8bc5f6",
"cb c #cdbd73",
"cc c #9ccde6",
"cd c #5a7383",
"ce c #9cbdcd",
"cf c #ac8b6a",
"cg c #315a83",
"ch c #ee8329",
"ci c #a4c5cd",
"cj c #ffcd62",
"ck c #73b4f6",
"cl c #bdcdcd",
"cm c #a4c5d5",
"cn c #b4acac",
"co c #c5cdb4",
"cp c #bdd5de",
"da c #94c5f6",
"db c #ee8331",
"dc c #5aa4ee",
"dd c #315a8b",
"de c #ffde73",
"df c #e6b473",
"dg c #83acd5",
"dh c #b4bdc5",
"di c #c5ffff",
"dj c #8b9ca4",
"dk c #629ccd",
"dl c #94acb4",
"dm c #bdc5c5",
"dn c #417ba4",
"do c #ffffbd",
"dp c #c5d5bd",
"ea c #ffde7b",
"eb c #ffa441",
"ec c #418bc5",
"ed c #83bde6",
"ee c #ffee7b",
"ef c #8b7b83",
"eg c #ac8b7b",
"eh c #1894ff",
"ei c #94c5d5",
"ej c #e6de8b",
"ek c #62ace6",
"el c #9cbdd5",
"em c #b4c5cd",
"en c #deac62",
"eo c #e6dec5",
"ep c #ffb44a",
"fa c #7bb4cd",
"fb c #e6eee6",
"fc c #eef6ee",
"fd c #ff9c31",
"fe c #5a7b94",
"ff c #b4cdcd",
"fg c #acbdbd",
"fh c #e6dede",
"fi c #9ccdee",
"fj c #c5cdac",
"fk c #5a9cc5",
"fl c #29527b",
"fm c #eede73",
"fn c #83a4b4",
"fo c #839c9c",
"fp c #6294bd",
"ga c #397bc5",
"gb c #cdbda4",
"gc c #eee683",
"gd c #ffa439",
"ge c #83bdde",
"gf c #9c5a29",
"gg c #f6d55a",
"gh c #ffc55a",
"gi c #8bc5ee",
"gj c #ace6ff",
"gk c #73acd5",
"gl c #e6eeee",
"gm c #ff9c29",
"gn c #8bc5ff",
"go c #e6e6a4",
"gp c #acb4c5",
"ha c #c5c5c5",
"hb c #94c5ee",
"hc c #de8329",
"hd c #5a94c5",
"he c #bde6ff",
"hf c #ffffa4",
"hg c #205283",
"hh c #ffbd52",
"hi c #94a4b4",
"hj c #396a9c",
"hk c #ffffb4",
"hl c #c5cd94",
"hm c #ffa431",
"hn c #7bbdff",
"ho c #d5e6e6",
"hp c #eef69c",
"ia c #d58b41",
"ib c #736a7b",
"ic c #7bc5e6",
"id c #accdcd",
"ie c #d57b29",
"if c #c5e6e6",
"ig c #deac73",
"ih c #6abdf6",
"ii c #f6bd41",
"ij c #8394ac",
"ik c #6a8bc5",
"il c #d5dede",
"im c #b4c5d5",
"in c #b4def6",
"io c #bdeeff",
"ip c #ffc562",
"ja c #d5f6ff",
"jb c #ffac41",
"jc c #c5eeff",
"jd c #9cc5e6",
"je c #c5ac6a",
"jf c #cdbdb4",
"jg c #ffff94",
"jh c #204a7b",
"ji c #eea452",
"jj c #cdeeff",
"jk c #d5e6ee",
"jl c #d5eeff",
"jm c #6ab4ee",
"jn c #eeee94",
"jo c #526a8b",
"jp c #eee68b",
"ka c #9cacb4",
"kb c #94c5de",
"kc c #31a4ff",
"kd c #dee6e6",
"ke c #185a9c",
"kf c #ffd56a",
"kg c #d5a462",
"kh c #eecd7b",
"ki c #ac9483",
"kj c #b4deff",
"kk c #ffff8b",
"kl c #b4eeff",
"km c #bdc5cd",
"kn c #94bdee",
"ko c #cd8341",
"kp c #deeea4",
"la c #ffc54a",
"lb c #ffee8b",
"lc c #d5dee6",
"ld c #8bbdf6",
"le c #5a83ac",
"lf c #ffa44a",
"lg c #ffe67b",
"lh c #deffff",
"li c #e6cd8b",
"lj c #c5d5d5",
"lk c #acdef6",
"ll c #ffffc5",
"lm c #d5d5d5",
"ln c #4a7bac",
"lo c #b4cdbd",
"lp c #94acbd",
"ma c #b4e6ff",
"mb c #7ba4cd",
"mc c #cdf6ff",
"md c #cddede",
"me c #8b9cac",
"mf c #d5ffff",
"mg c #8bd5ff",
"mh c #94cdf6",
"mi c #bdbdbd",
"mj c #a4deff",
"mk c #eeffff",
"ml c #ffbd5a",
"mm c #a4d5ff",
"mn c #73bdff",
"mo c #83b4e6",
"mp c #acd5de",
"na c #f6ffcd",
"nb c #eeb452",
"nc c #ffe673",
"nd c #acdeff",
"ne c #4a6283",
"nf c #ffffac",
"ng c #e6e6e6",
"nh c #c5e6ff",
"ni c #d5eef6",
"nj c #52b4ff",
"nk c #f68329",
"nl c #94c5ff",
"nm c #c5d5de",
"nn c #c5cdd5",
"no c #eeeeee",
"np c #9cd5ff",
"oa c #e6ffff",
"ob c #f6f6f6",
"oc c #a4cdee",
"od c #eeeef6",
"oe c #bdacac",
"of c #f6f6ee",
"og c #f6f6ff",
"oh c #f6eeee",
"oi c #e6e6bd",
"oj c #8bcdff",
"ok c #acc5d5",
"ol c #bdcdd5",
"om c #627b94",
"on c #bdf6ff",
"oo c #acd5ff",
"op c #ff9c39",
"pa c #dedede",
"pb c #eef6f6",
"pc c #e6f6f6",
"pd c #9ccdff",
"pe c #eeeee6",
"pf c #7bb4e6",
"pg c #aceeff",
"ph c #94cdff",
"pi c #eee6e6",
"pj c #ffb452",
"pk c #def6ff",
"pl c #fffff6",
"pm c #ffcd6a",
"pn c #f6ffff",
"po c #fff6f6",
"pp c #ffffff",
"pppppppppppppppppppppppppppppppppppppppppppppppppppppppppppppppp",
"pppppppppppppppppppppppppppppppppppppppppppppppppppppppppppppppp",
"ppppppppppppppppppppppppppppppppppppppobnononopaobpppppppppppppp",
"ppppppppppppppppppppppppppppobofnonopinopbnonoobngpppppppppppppp",
"ppppppppppppppppppppobnopengohodililnongngpalmobngpppppppppppppp",
"ppppppppppppppppngngnoodobogilemlcildhngpangpanononopppppppppppp",
"pppppppppppppppppaobfcnolmdhnnobppppmdkmglngngngobngpppppppppppp",
"ppppppppppppppppkdohnoemkmpcpnmkmkmkpnidadpingngobngpppppppppppp",
"ppppppppppppppppobdmkmhopnmkmkmkmkmkoamcokngpengobnonopppppppppp",
"ppppppppppppppngkmoloamkoaoaoalhoaoajaonmpngpengnoobngpppppppppp",
"pppppppppppbnnclnipkpklhpklhpkoapcmcioonfgglnoodnoppngpppppppppp",
"pppppppoilnnjkjjheinjajajajajajajciomaiolkokpononoobnonopppppppp",
"ppppglcpmdnhinooinndnhjjjjjjjjiomagjmagjklccclplfcobobngpppppppp",
"ppppgpaamapdnpmmocmmoonhhehehelkingjlkinlkmaeilcppohppngobpppppp",
"ppplglfecaphfinlphgnmhmamainmpndmmlkmjndoomjndaaodpopnnoohpppppp",
"plpppplmfemgckedaneleicmmmnpmmmmmmmmmmmmmmmmmmmmceplpoobfbpppppp",
"pppppppphiikidbchfhkhpbndpcmmmnpnppdnpnppdmmfimmgifgppppkdogpppp",
"pppppppppicbkkjgnfnadohfaohlknpdpdpdpdpdpdpdpdphocmocpppngnopppp",
"ppplppobliajejijbghpofjggcfonlpdphpdfiphnlphpdpdpdpddglcppngpppp",
"ppplppeoapncafmnpfhphfgcijdanpmhmhnlpdmhocpdphpdnlnpndokpppapnpp",
"pppopnahcjdelgaloijggcdnjmcchbpdjddapdpdginlpddamjmplpmibphaplpp",
"pppppbdfghggeancjnggdnehgkjnlocacogocielkpfjainpaejhompaohpppppp",
"ppplpbenmlipkhkfealifkkcbilakgedkgakfnaciikgmogajhbppppppppppppp",
"plpnpoigepmlipcjpmkfapaebaibhdmnlebmdcekefomkecdngppppplpppppppp",
"plpopngbfdjbpjmlmlmlhhnbmbnjnjgkbjjmgnnpecflkappppplpppppppppppp",
"ppppppngiagdjijbjbnbnbjbjihimnmncknpmnddjofhpppnpppppppppppppppp",
"ppppppppbfiefdgdopebopophmkojmgnmmhdflhipppppppppppppppppppppppp",
"ppppppppplmiambodbnkdbhcgfikpdgihjbbpapppppppppppppppppppppppppp",
"pppppppnplppkdcnegegegoegplndkcgdjplppplpppppppppppppppppppppppp",
"pppppppppppppppppnpnpnppppdlnelmpppppppppppppppppppppppppppppppp",
"ppppppppppppppppppppppppplpppppppppppppppppppppppppppppppppppppp",
"ppppppppppppppppppppppppppppppppplpppppppppppppppppppppppppppppp"
};
